<svg id="Layer_1" data-name="Layer 1" xmlns="http://www.w3.org/2000/svg" viewBox="0 0 148.53 120.29"><defs><style>.cls-1{fill:#595a5a;}</style></defs><path class="cls-1" d="M851.41,715,826,723.88a5.55,5.55,0,0,0-.7-1.1c-1.23-1.38-5.83,2.15-6.29,2.46s-18,.31-20.11,0-17.49-17-17.49-17A43.19,43.19,0,0,0,787,705c1.23-1.07,7.06,2.76,10.44,4.6s7.67.62,8.75-.76-2.46-3.84-3.69-5.39.31-7.35.31-7.35a44,44,0,0,0,4.76.92c.92,0,0,0-.92-4.3s-4.76-5.68-5.22-7.67a5,5,0,0,0-2.25-2.7c8.17-2,11.84-3.07,9.9-4.6-2.18-1.73-9.56-1.61-11.74-1.27-1.84-2.41-16.46-14.27-19.22-13.46-2,2.64-15.54,13.35-23.71,16.8,9.9,1.5,21.64-5.18,21.64-5.18V685c-4.38,3-13.7,13.7-8.17,12.78a7.76,7.76,0,0,0,1.24-.34c-2.42,1.78-4,3-4,3s-8.67,8.59-20,18c2.28.31,8.76-2.91,8.76-2.91s1.38-.46-2.3,5.68a25.43,25.43,0,0,0,11.92-4.78c-3.69,3.46-12.43,11.75-15.76,13.28-4.14,1.91-7.21,9.91-6.29,15s15.2,2.15,17.16,2.15a3,3,0,0,1,1.18.34l-12.24,4.28c-6.16-3.53-20.13-1.84-25.8,7.52s-4.61,15.34-16.12,16.11c8.6,3.23,11.07-4,21-3.53s21.55-3.07,22.78-16.42l14.11-5.22c1.08,1.08,1.84,2.18,1.68,2.75-.38,1.38-8.51,19.18-8.51,19.18s2.14.92,7.67-1.13,8.29-8.54,8.29-8.54.46.92,1.07,8.54c4-1.63,8.16-8.58,10.82-14.83h0l7.52,6.83a18.49,18.49,0,0,0-2.38,2.3c3.84.69,11.65,18.34,11.65,18.34l4-2.84s-2.54-2.76-5.45-5.83c5.45.54,17.34-5.52,16.27-10.82-.31,1.07-11.13,4.37-13,3.68s-3.68-10.13-3.68-10.13l-3.23,2.15-9.76-8.8h0c.26-.81.47-1.57.63-2.25,1.54-6.44,10.44-5.37,10.44-5.37a56.22,56.22,0,0,0-6.51-3.37c3.46-1.27,7-2.57,10.5-3.85a19.58,19.58,0,0,1,1.07,6c0,2.46-4,6.14-4,6.14s6.14-.76,8.75-1.22,6-4,6-4,.61,2.31-.77,8c3.22-2.46,5.68-13.2,5.68-16.73a2.75,2.75,0,0,1,3.37-2.92s2.77,1.23,4.91,0c1.18-.67,1.11-2.69.61-4.6,12.63-4.57,22.14-7.93,23.64-8.25C855.71,717.15,854.48,713.92,851.41,715Zm-76.27,20.52c4.91-2.76,9.36-12.74,9.36-12.74s2.45,6,5.21,7.52a67.53,67.53,0,0,0,8.44,3.33l-12,4.19A41.41,41.41,0,0,0,775.14,735.52Z" transform="translate(-705.55 -662.96)"/></svg>