<svg id="Layer_1" data-name="Layer 1" xmlns="http://www.w3.org/2000/svg" viewBox="0 0 194.94 210.99"><defs><style>.cls-1{fill:#23221f;}.cls-2{fill:#595a5a;}.cls-3{fill:none;stroke:#000;stroke-miterlimit:10;stroke-width:0.15px;}</style></defs><polygon class="cls-1" points="114.36 210.99 80.58 210.99 76.13 164.63 118.8 164.63 114.36 210.99"/><path class="cls-1" d="M1058.69,756.33c2.46,5.58,7.46,21.75,18.08,19,0,0-.29,6.12-16,7.58h-51.46c-15.75-1.46-16-7.58-16-7.58,10.62,2.74,17-13.43,19.49-19C1012.72,756.33,1034.35,767,1058.69,756.33Z" transform="translate(-937.53 -612.9)"/><polygon class="cls-1" points="112.75 153.98 82.19 153.98 78.16 62.29 116.78 62.29 112.75 153.98"/><path class="cls-2" d="M1040.93,823.89V806.78a5.93,5.93,0,0,0-11.86,0v17.11Z" transform="translate(-937.53 -612.9)"/><line class="cls-3" x1="11.09" y1="162" x2="11.09" y2="162"/><path class="cls-2" d="M1042.07,788.38a7.07,7.07,0,1,1-7.07-7.07A7.07,7.07,0,0,1,1042.07,788.38Z" transform="translate(-937.53 -612.9)"/><path class="cls-2" d="M1021.75,734.58s4.59,1.76,11.59,0l-2.19,19.25h-7.38Z" transform="translate(-937.53 -612.9)"/><rect class="cls-1" x="89.14" y="121.68" width="1.75" height="20.15"/><rect class="cls-1" x="84.22" y="131.29" width="11.59" height="1.76"/><path class="cls-2" d="M1036.66,734.58s4.6,1.76,11.59,0l-2.18,19.25h-7.39Z" transform="translate(-937.53 -612.9)"/><rect class="cls-1" x="104.05" y="121.68" width="1.75" height="20.15"/><rect class="cls-1" x="99.13" y="131.29" width="11.59" height="1.76"/><path class="cls-2" d="M1021.75,685.46s4.59,1.75,11.59,0l-2.19,19.25h-7.38Z" transform="translate(-937.53 -612.9)"/><rect class="cls-1" x="89.14" y="72.56" width="1.75" height="20.15"/><rect class="cls-1" x="84.22" y="82.17" width="11.59" height="1.74"/><path class="cls-2" d="M1036.66,685.46s4.59,1.75,11.59,0l-2.18,19.25h-7.39Z" transform="translate(-937.53 -612.9)"/><rect class="cls-1" x="104.05" y="72.56" width="1.75" height="20.15"/><rect class="cls-1" x="99.13" y="82.17" width="11.59" height="1.74"/><path class="cls-1" d="M1036.06,612.9s-8.91,42.35-28.32,62.29h54.51S1042.07,648.33,1036.06,612.9Z" transform="translate(-937.53 -612.9)"/><polygon class="cls-1" points="54 210.99 35.5 210.99 27.88 153.67 57.04 153.67 54 210.99"/><path class="cls-1" d="M981,737.42s-15,26.77-26.22,29.15h50.47A63.49,63.49,0,0,1,981,737.42Z" transform="translate(-937.53 -612.9)"/><path class="cls-2" d="M985.86,805.13,987,788a5.94,5.94,0,1,0-11.88,0l1.1,17.09Z" transform="translate(-937.53 -612.9)"/><rect class="cls-1" x="42.51" y="168.75" width="2.07" height="23.94"/><rect class="cls-1" x="36.67" y="179.68" width="13.77" height="2.08"/><polygon class="cls-1" points="138.42 210.99 156.92 210.99 164.54 153.67 135.38 153.67 138.42 210.99"/><path class="cls-1" d="M1086.5,737.42s15,26.77,26.22,29.15h-50.47A63.49,63.49,0,0,0,1086.5,737.42Z" transform="translate(-937.53 -612.9)"/><path class="cls-2" d="M1081.63,805.13,1080.47,788a5.94,5.94,0,1,1,11.87,0l-1.09,17.09Z" transform="translate(-937.53 -612.9)"/><rect class="cls-1" x="147.84" y="168.75" width="2.07" height="23.94"/><rect class="cls-1" x="141.99" y="179.68" width="13.77" height="2.08"/><polygon class="cls-1" points="81.78 210.99 54.57 210.99 43.38 113.82 86.25 113.82 81.78 210.99"/><path class="cls-1" d="M1003.79,683.84s-22.08,39.37-38.55,42.88h74.2S1015.33,712.72,1003.79,683.84Z" transform="translate(-937.53 -612.9)"/><path class="cls-2" d="M998.51,765.41s4.6,1.74,11.6,0l-2.19,19.24h-7.38Z" transform="translate(-937.53 -612.9)"/><rect class="cls-1" x="65.9" y="152.51" width="1.76" height="20.15"/><rect class="cls-1" x="60.98" y="162.11" width="11.59" height="1.74"/><path class="cls-2" d="M998.51,796.65s4.6,1.75,11.6,0l-2.19,19.24h-7.38Z" transform="translate(-937.53 -612.9)"/><rect class="cls-1" x="65.9" y="183.75" width="1.76" height="20.15"/><rect class="cls-1" x="60.98" y="193.35" width="11.59" height="1.74"/><path class="cls-2" d="M1011.38,751.26a7.07,7.07,0,1,1-7.07-7.07A7.06,7.06,0,0,1,1011.38,751.26Z" transform="translate(-937.53 -612.9)"/><rect class="cls-1" x="65.9" y="129.6" width="1.76" height="17.51"/><rect class="cls-1" x="58.73" y="137.48" width="16.11" height="1.76"/><rect class="cls-1" x="96.59" y="166.72" width="1.76" height="17.51"/><rect class="cls-1" x="89.41" y="174.6" width="16.11" height="1.76"/><polygon class="cls-1" points="113.16 210.99 140.37 210.99 151.56 113.82 108.69 113.82 113.16 210.99"/><path class="cls-1" d="M1066.21,683.84s22.08,39.37,38.55,42.88h-74.2S1054.67,712.72,1066.21,683.84Z" transform="translate(-937.53 -612.9)"/><path class="cls-2" d="M1071.48,765.41s-4.59,1.74-11.58,0l2.18,19.24h7.38Z" transform="translate(-937.53 -612.9)"/><rect class="cls-1" x="127.28" y="152.51" width="1.75" height="20.15"/><rect class="cls-1" x="122.36" y="162.11" width="11.59" height="1.74"/><path class="cls-2" d="M1071.48,796.65s-4.59,1.75-11.58,0l2.18,19.24h7.38Z" transform="translate(-937.53 -612.9)"/><rect class="cls-1" x="127.28" y="183.75" width="1.75" height="20.15"/><rect class="cls-1" x="122.36" y="193.35" width="11.59" height="1.74"/><path class="cls-2" d="M1058.63,751.26a7.06,7.06,0,1,0,7.06-7.07A7.05,7.05,0,0,0,1058.63,751.26Z" transform="translate(-937.53 -612.9)"/><rect class="cls-1" x="127.28" y="129.6" width="1.75" height="17.51"/><rect class="cls-1" x="120.1" y="137.48" width="16.11" height="1.76"/><rect class="cls-1" x="165.46" y="93.04" width="15.45" height="47.89"/><rect class="cls-1" x="148.4" y="122.05" width="25.13" height="18.88"/><polygon class="cls-1" points="186.75 98.72 188.59 66.56 157.78 66.56 159.63 98.72 186.75 98.72"/><path class="cls-2" d="M1100.15,688s3.66,1.42,9.24,0l-1.74,15.37h-5.89Z" transform="translate(-937.53 -612.9)"/><rect class="cls-1" x="166.54" y="75.09" width="1.39" height="16.08"/><rect class="cls-1" x="162.62" y="82.77" width="9.24" height="1.39"/><path class="cls-2" d="M1112.05,688s3.66,1.42,9.24,0l-1.74,15.37h-5.89Z" transform="translate(-937.53 -612.9)"/><rect class="cls-1" x="178.44" y="75.09" width="1.39" height="16.08"/><rect class="cls-1" x="174.52" y="82.77" width="9.24" height="1.39"/><path class="cls-1" d="M1111.57,629.75s-7.11,33.78-22.6,49.71h43.5S1116.35,658,1111.57,629.75Z" transform="translate(-937.53 -612.9)"/><rect class="cls-1" x="14.03" y="93.04" width="15.45" height="47.89"/><rect class="cls-1" x="21.41" y="122.05" width="25.13" height="18.88"/><polygon class="cls-1" points="8.19 98.72 6.34 66.56 37.15 66.56 35.3 98.72 8.19 98.72"/><path class="cls-2" d="M969.85,688s-3.66,1.42-9.25,0l1.76,15.37h5.88Z" transform="translate(-937.53 -612.9)"/><rect class="cls-1" x="27" y="75.09" width="1.39" height="16.08"/><rect class="cls-1" x="23.07" y="82.77" width="9.24" height="1.39"/><path class="cls-2" d="M958,688s-3.66,1.42-9.24,0l1.74,15.37h5.89Z" transform="translate(-937.53 -612.9)"/><rect class="cls-1" x="15.1" y="75.09" width="1.39" height="16.08"/><rect class="cls-1" x="11.17" y="82.77" width="9.24" height="1.39"/><path class="cls-1" d="M958.43,629.75s7.11,33.78,22.59,49.71H937.53S953.64,658,958.43,629.75Z" transform="translate(-937.53 -612.9)"/></svg>