<svg id="Layer_1" data-name="Layer 1" xmlns="http://www.w3.org/2000/svg" viewBox="0 0 614.62 345.44"><defs><style>.cls-1,.cls-4,.cls-5,.cls-6,.cls-7,.cls-8,.cls-9{fill:#f9f9f9;}.cls-2{fill:#939393;}.cls-3{fill:#606060;opacity:0.38;}.cls-4,.cls-5,.cls-6,.cls-7,.cls-8,.cls-9{font-size:137.65px;}.cls-11,.cls-12,.cls-13,.cls-14,.cls-4,.cls-5,.cls-6,.cls-7,.cls-8,.cls-9{font-family:JollyLodger, Jolly Lodger;}.cls-4{letter-spacing:-0.03em;}.cls-5{letter-spacing:-0.05em;}.cls-6{letter-spacing:-0.08em;}.cls-7{letter-spacing:0.06em;}.cls-8{letter-spacing:0.01em;}.cls-9{letter-spacing:0.01em;}.cls-10{letter-spacing:-0.02em;}.cls-11,.cls-12,.cls-13,.cls-14{font-size:121.01px;fill:#d8d5d4;}.cls-11{letter-spacing:0em;}.cls-12{letter-spacing:-0.05em;}.cls-13{letter-spacing:-0.02em;}.cls-14{letter-spacing:-0.02em;}.cls-15{letter-spacing:0.01em;}.cls-16{letter-spacing:-0.02em;}</style></defs><path class="cls-1" d="M-1068.6,112.2c-4.08-4.66-8.28-9.76-9.68-16.42h0L-1095.87,10c2.44-6.95,5-12.13,1.95-21.87-2-6.61-7.29-10-14.81-11.55h0c-20.14-3.87-41.57-6.11-62.78-16.85-4.93-8-9.22-16.38-11.87-25.88a6.66,6.66,0,0,0,3.19-1.88,5.61,5.61,0,0,0,.75-4.4,5.43,5.43,0,0,0-2.54-3.66,6.81,6.81,0,0,0-3.71-.4l-11.67-48.81,2.5-.52a6.52,6.52,0,0,0,4.21-2.73,6.53,6.53,0,0,0,1-4.2,6.22,6.22,0,0,0-1.56-3.73c-.44-.48-1.23-.39-1.86-.62a50.94,50.94,0,0,1,8.91-11.48,1.18,1.18,0,0,0,.33-1.1L-1188-168.8a1.18,1.18,0,0,0-1.15-.94v0l-.12,0c-11.37.5-21.06-1.21-31.08-2.69a1.49,1.49,0,0,0-.42,0l-28.32,5.92a1.32,1.32,0,0,0-.39.15c-8.6,5.37-16.81,10.83-27.46,14.92a1.19,1.19,0,0,0-.75,1.34l3.85,19.22a1.2,1.2,0,0,0,.74.88,50.75,50.75,0,0,1,12.76,7c-.49.47-1.25.69-1.46,1.31a6.35,6.35,0,0,0,.06,4,6.59,6.59,0,0,0,2.6,3.46,6.51,6.51,0,0,0,5,.82l2.49-.53,8.83,49.4a6.88,6.88,0,0,0-3.23,1.85,5.4,5.4,0,0,0-.87,4.38,5.65,5.65,0,0,0,2.45,3.73c1,.6,2.34.5,3.68.44a99.92,99.92,0,0,1-.54,28.47c-15.13,18.32-33.88,29-50.79,40.55h0c-6.25,4.47-9.72,9.64-9,16.52,1.13,10.13,5.51,13.87,10.53,19.25l18.18,85.64c1.39,6.67-.43,13-2.3,18.93a14.63,14.63,0,0,0,2.21,12.52,11.8,11.8,0,0,0,12.3,5l31.62-6.6,2-8.74,13-57.17,2-8.92-25.75-71.87L-1163-17.2l38.63,70-60.42,35.39L-1207.42,35l38-18.55,14.7,27.48-16,9.86-3.68-7.36c13.54-3.12,6.3-22.19-5.15-17l-12.8,6.55s-6,2.13-3,9,12.07,27,12.07,27,3.6,5.71,10.8,1.15,33.88-19.63,33.88-19.63,4.75-3.88.65-10-25.35-44.89-25.35-44.89A7,7,0,0,0-1172.65-4c-6.14,2.93-49.09,23.27-49.09,23.27s-7.19,3.32-2.75,14.35C-1217,53-1207.43,81-1204.34,90.34l-.83,7.92-5.87,55.88-.9,8.51,137-28.6a11.8,11.8,0,0,0,9.28-9.49A14.66,14.66,0,0,0-1068.6,112.2ZM-1238,79.86a4.82,4.82,0,0,1,5.71,3.74,4.81,4.81,0,0,1-3.73,5.7,4.82,4.82,0,0,1-5.71-3.73A4.82,4.82,0,0,1-1238,79.86Zm55.67,30,1.21-.26.42,1.33a11.34,11.34,0,0,0,11.14,6.36l.3,1.42-.93.2c-7.9,3.8-6.63,11.26-6.63,11.26l-1.3.27-.24-1a10.4,10.4,0,0,0-9.46-7l-1.16.23-.32-1.52,1-.23C-1179.82,115.43-1182.32,109.87-1182.32,109.87Z" transform="translate(1301.26 172.44)"/><path class="cls-2" d="M-1213.6,100.22l-13,57.17-35.68,7.44a2.64,2.64,0,0,1-3-1.31,5.6,5.6,0,0,1-1-4.52c2.28-7.19,4.36-14.95,2.54-23.65l-6.37-25.59C-1256.1,106.11-1235.3,105.31-1213.6,100.22Z" transform="translate(1301.26 172.44)"/><path class="cls-2" d="M-1074.86,119.05c-5-5.68-10-12-11.8-20.69l-.66-2.47c-37.86,5.53-82.75-5.72-117.85,2.37l-5.87,55.88L-1076.15,126a2.65,2.65,0,0,0,2.21-2.39A5.68,5.68,0,0,0-1074.86,119.05Zm-94.39-.33-.93.2c-7.9,3.8-6.63,11.26-6.63,11.26l-1.3.27-.24-1a10.4,10.4,0,0,0-9.46-7l-1.16.23-.32-1.52,1-.23c8.42-5.55,5.92-11.11,5.92-11.11l1.21-.26.42,1.33a11.34,11.34,0,0,0,11.14,6.36Z" transform="translate(1301.26 172.44)"/><path id="path14268" class="cls-3" d="M-1246.37-138.08a34,34,0,0,0-6.34,2.13c1.19,0,2.33-.07,3.45-.19-1.06.36-2.13.77-3.21,1.25a32.23,32.23,0,0,0,3.45-.18c-1.06.35-2.13.77-3.21,1.25a32.65,32.65,0,0,0,4-.29,37.82,37.82,0,0,0-3.77,1.41,32,32,0,0,0,3.44-.18c-1.06.35-2.12.77-3.2,1.25,1.18,0,2.33-.07,3.44-.19-1.06.36-2.12.77-3.2,1.25.24,0,.47,0,.71,0-.22.1-.44.16-.66.26a32,32,0,0,0,3.44-.18c-1.06.36-2.13.77-3.2,1.25a32,32,0,0,0,3.44-.19c-1.06.36-2.13.78-3.2,1.25a30.81,30.81,0,0,0,4-.28,37.82,37.82,0,0,0-3.77,1.41,32.2,32.2,0,0,0,3.45-.19c-1.07.36-2.13.78-3.21,1.25a32.23,32.23,0,0,0,3.45-.18c-1.07.36-2.13.77-3.21,1.25a29.15,29.15,0,0,0,12.94-2.91,33.46,33.46,0,0,0-3.37.22,30.43,30.43,0,0,0,3.13-1.29,33.43,33.43,0,0,0-3.37.23,33,33,0,0,0,3.13-1.3,35.28,35.28,0,0,0-3.93.33,32.59,32.59,0,0,0,3.68-1.45,33.23,33.23,0,0,0-3.37.23c1-.37,2.08-.8,3.13-1.3-1.16,0-2.28.1-3.37.23a31.38,31.38,0,0,0,3.13-1.29c-.24,0-.47,0-.71,0l.66-.27a33.27,33.27,0,0,0-3.37.22,30.43,30.43,0,0,0,3.13-1.29,33.23,33.23,0,0,0-3.37.23c1-.37,2.08-.8,3.13-1.29a31.39,31.39,0,0,0-3.94.33,31.25,31.25,0,0,0,3.68-1.46,33.63,33.63,0,0,0-3.37.23c1-.37,2.08-.8,3.13-1.29a33.66,33.66,0,0,0-3.37.22,30.43,30.43,0,0,0,3.13-1.29,33,33,0,0,0-6.6.79Zm3,15.65a13.79,13.79,0,0,0-4,1.6,17.12,17.12,0,0,0,2.47,0,15.51,15.51,0,0,0-2,1,17,17,0,0,0,2.46,0,14.27,14.27,0,0,0-2,1,16.85,16.85,0,0,0,2.85,0,14.31,14.31,0,0,0-2.32,1.08,17,17,0,0,0,2.46,0,14.27,14.27,0,0,0-2,1,18.6,18.6,0,0,0,2.46,0,13.21,13.21,0,0,0-2,1,12.94,12.94,0,0,0,8.56-1.93,19,19,0,0,0-2.39,0,12.36,12.36,0,0,0,1.89-1,17.27,17.27,0,0,0-2.39,0,12.68,12.68,0,0,0,1.88-1,17.89,17.89,0,0,0-2.76.06,12,12,0,0,0,2.23-1.13,18.83,18.83,0,0,0-2.38,0,12.68,12.68,0,0,0,1.88-1,19,19,0,0,0-2.39,0,11.49,11.49,0,0,0,1.89-1A16.12,16.12,0,0,0-1243.4-122.43Zm3.85,8.12a7.78,7.78,0,0,0-2.83,1.34,8.24,8.24,0,0,0,1.65.22,8.8,8.8,0,0,0-1.41.85,8.2,8.2,0,0,0,1.65.21,9.6,9.6,0,0,0-1.41.85,7.7,7.7,0,0,0,1.93.19,8.87,8.87,0,0,0-1.68.94,9.13,9.13,0,0,0,1.66.22,8.39,8.39,0,0,0-1.42.84,7.66,7.66,0,0,0,1.66.22,9.19,9.19,0,0,0-1.42.85,6.49,6.49,0,0,0,6-1.34,7.61,7.61,0,0,0-1.61-.17,8.07,8.07,0,0,0,1.37-.9,8.32,8.32,0,0,0-1.61-.17,7.44,7.44,0,0,0,1.37-.89,7.55,7.55,0,0,0-1.87-.14,7.35,7.35,0,0,0,1.62-1,8.32,8.32,0,0,0-1.61-.17,7.79,7.79,0,0,0,1.37-.89,7.61,7.61,0,0,0-1.61-.17,8.48,8.48,0,0,0,1.37-.9A7.45,7.45,0,0,0-1239.55-114.31Zm13,51.11a7.25,7.25,0,0,0-2.73,1.32,7.18,7.18,0,0,0,1.6.23,8.55,8.55,0,0,0-1.36.83,7.86,7.86,0,0,0,1.6.24,7.88,7.88,0,0,0-1.36.83,7.75,7.75,0,0,0,1.86.21,7.47,7.47,0,0,0-1.6.92,8.36,8.36,0,0,0,1.59.23,8.2,8.2,0,0,0-1.35.83,7,7,0,0,0,1.59.23,8.28,8.28,0,0,0-1.35.84,6,6,0,0,0,5.73-1.3,8.69,8.69,0,0,0-1.56-.18,7.05,7.05,0,0,0,1.32-.88,7.19,7.19,0,0,0-1.56-.18,7.12,7.12,0,0,0,1.32-.89,7.51,7.51,0,0,0-1.8-.15,7.08,7.08,0,0,0,1.55-1,7.19,7.19,0,0,0-1.56-.18,7.12,7.12,0,0,0,1.32-.89,8.69,8.69,0,0,0-1.56-.18,7.05,7.05,0,0,0,1.32-.88A7,7,0,0,0-1226.5-63.2Z" transform="translate(1301.26 172.44)"/><text class="cls-4" transform="translate(232.32 183.93) scale(1.05)">D</text><text class="cls-5" transform="translate(290.83 189.09) rotate(-3.26)">R</text><text class="cls-6" transform="translate(341.19 187.57)">U</text><text class="cls-7" transform="translate(388.61 183.45) rotate(10.64)">N</text><text class="cls-8" transform="translate(454.83 183.2) scale(1.06)">K</text><text class="cls-9" transform="translate(512.34 194.85)">E<tspan class="cls-10" x="47.6" y="-5.82">N</tspan></text><text class="cls-11" transform="translate(256.47 286.78)">W</text><text class="cls-12" transform="translate(310.13 288.72) scale(0.86)">I</text><text class="cls-13" transform="translate(334.59 280.96) scale(1.12 1)">Z</text><text class="cls-14" transform="translate(373.47 286.78)">A<tspan class="cls-15" x="51.47" y="0">R</tspan><tspan class="cls-16" x="102.91" y="10.68">D</tspan><tspan x="147.05" y="0">S</tspan></text><path class="cls-1" d="M-1123.61-109.47h3.43s.63-16.22,18.87-20.74h2v-3.12s-15.75-1.09-20.59-18.25l-.31-3h-2.65s2.81,12.79-17.31,20.74l-2.29,0v3.33l2.54,0s14.68,3,16.79,18.81l.1,2.32" transform="translate(1301.26 172.44)"/><path class="cls-1" d="M-1290.1-50h2s.37-9.62,11.19-12.3h1.21v-1.85A14.42,14.42,0,0,1-1287.88-75l-.18-1.76h-1.57s1.66,7.59-10.27,12.31h-1.36v2l1.51,0a13.19,13.19,0,0,1,10,11.15l.06,1.38" transform="translate(1301.26 172.44)"/></svg>