<svg id="Layer_1" data-name="Layer 1" xmlns="http://www.w3.org/2000/svg" viewBox="0 0 614.62 358.86"><defs><style>.cls-1{fill:#917c6f;}.cls-2{fill:#280b0b;}.cls-3{fill:#f4eed7;}.cls-4{fill:#dbdbd9;opacity:0.11;}.cls-10,.cls-5,.cls-6,.cls-7,.cls-8,.cls-9{font-size:137.65px;fill:#fff6d5;}.cls-10,.cls-12,.cls-13,.cls-14,.cls-15,.cls-5,.cls-6,.cls-7,.cls-8,.cls-9{font-family:JollyLodger, Jolly Lodger;}.cls-5{letter-spacing:-0.03em;}.cls-6{letter-spacing:-0.05em;}.cls-7{letter-spacing:-0.08em;}.cls-8{letter-spacing:0.06em;}.cls-9{letter-spacing:0.01em;}.cls-10{letter-spacing:0.01em;}.cls-11{letter-spacing:-0.02em;}.cls-12,.cls-13,.cls-14,.cls-15{font-size:121.01px;fill:#fea;}.cls-12{letter-spacing:0em;}.cls-13{letter-spacing:-0.05em;}.cls-14{letter-spacing:-0.02em;}.cls-15{letter-spacing:-0.02em;}.cls-16{letter-spacing:0.01em;}.cls-17{letter-spacing:-0.02em;}</style></defs><path id="path12298" class="cls-1" d="M652.86,612.65a1.11,1.11,0,0,0-.39.16c-8.8,5.65-17.19,11.39-28.12,15.74a1.24,1.24,0,0,0-.74,1.4l4.22,19.77a1.2,1.2,0,0,0,.77.89,52.74,52.74,0,0,1,13.25,7c-.5.5-1.28.74-1.49,1.38a6.49,6.49,0,0,0,.12,4.17,6.82,6.82,0,0,0,2.73,3.53,6.73,6.73,0,0,0,5.11.77l2.56-.57,9.77,50.81a7,7,0,0,0-3.31,2,5.6,5.6,0,0,0-.84,4.52,5.8,5.8,0,0,0,2.58,3.81c1,.61,2.42.49,3.8.41,1.54,10.05,1.07,19.75-.17,29.37-15.37,19.09-34.56,30.3-51.83,42.48h0c-6.39,4.7-9.89,10.07-9,17.16,1.3,10.43,5.87,14.22,11.11,19.71l19.9,88.06c1.52,6.85-.27,13.43-2.12,19.54a15.1,15.1,0,0,0,2.44,12.88,12.17,12.17,0,0,0,12.75,5l95.3-21.19,95.29-21.18A12.17,12.17,0,0,0,846,910.3a15.13,15.13,0,0,0-3.24-12.7c-4.27-4.75-8.68-10-10.2-16.81h0L813.24,792.6c2.42-7.19,5-12.57,1.71-22.57-2.2-6.79-7.65-10.17-15.42-11.72h0c-20.81-3.72-42.94-5.74-64.94-16.53-5.21-8.18-9.74-16.76-12.6-26.52,1.29-.51,2.62-1,3.27-2a5.8,5.8,0,0,0,.72-4.55,5.59,5.59,0,0,0-2.68-3.74,7,7,0,0,0-3.82-.37l-12.69-50.16,2.57-.58a6.66,6.66,0,0,0,4.3-2.86,6.77,6.77,0,0,0,1-4.35,6.55,6.55,0,0,0-1.65-3.83c-.47-.49-1.28-.38-1.94-.61a52.36,52.36,0,0,1,9-12,1.2,1.2,0,0,0,.32-1.14l-4.55-19.69a1.23,1.23,0,0,0-1.2-1v0l-.13,0c-11.71.67-21.73-1-32.07-2.35a1.23,1.23,0,0,0-.43,0l-14.57,3.24-14.57,3.24Z" transform="translate(-599.74 -606.14)"/><path class="cls-2" d="M832.4,904.2c-4.08-4.66-8.28-9.76-9.68-16.42h0L805.13,802c2.44-6.95,5-12.13,2-21.87-2.05-6.61-7.29-10-14.81-11.55h0c-20.14-3.87-41.57-6.11-62.78-16.85-4.93-8-9.22-16.38-11.87-25.88a6.66,6.66,0,0,0,3.19-1.88,5.61,5.61,0,0,0,.75-4.4,5.43,5.43,0,0,0-2.54-3.66,6.81,6.81,0,0,0-3.71-.4l-11.67-48.81,2.5-.52a6.28,6.28,0,0,0,5.21-6.93,6.22,6.22,0,0,0-1.56-3.73c-.44-.48-1.23-.39-1.86-.62a50.94,50.94,0,0,1,8.91-11.48,1.18,1.18,0,0,0,.33-1.1L713,623.2a1.18,1.18,0,0,0-1.15-.94v0l-.12,0c-11.37.5-21.06-1.21-31.08-2.69a1.49,1.49,0,0,0-.42,0l-28.32,5.92a1.32,1.32,0,0,0-.39.15c-8.6,5.37-16.81,10.83-27.46,14.92a1.19,1.19,0,0,0-.75,1.34l3.85,19.22a1.2,1.2,0,0,0,.74.88,50.75,50.75,0,0,1,12.76,7c-.49.47-1.25.69-1.46,1.31a6.35,6.35,0,0,0,.06,4,6.59,6.59,0,0,0,2.6,3.46,6.51,6.51,0,0,0,4.95.82l2.49-.53,8.83,49.4a6.88,6.88,0,0,0-3.23,1.85,5.4,5.4,0,0,0-.87,4.38,5.65,5.65,0,0,0,2.45,3.73c1,.6,2.34.5,3.68.44a99.92,99.92,0,0,1-.54,28.47c-15.13,18.32-33.88,28.95-50.79,40.55h0c-6.25,4.47-9.72,9.64-8.95,16.52,1.13,10.13,5.51,13.87,10.53,19.25l18.18,85.64c1.39,6.67-.43,13-2.3,18.93a14.63,14.63,0,0,0,2.21,12.52,11.8,11.8,0,0,0,12.3,5l31.62-6.6,2-8.74,13-57.17,2-8.92-25.75-71.87L738,774.8l38.63,70-60.42,35.39L693.58,827l38-18.55,14.7,27.48-16,9.86-3.68-7.36c13.54-3.12,6.3-22.19-5.15-17l-12.8,6.55s-6,2.13-3,9,12.07,27,12.07,27,3.6,5.71,10.8,1.15,33.88-19.63,33.88-19.63,4.75-3.88.65-10.05-25.35-44.89-25.35-44.89a7,7,0,0,0-9.33-2.37c-6.14,2.93-49.09,23.27-49.09,23.27s-7.19,3.32-2.75,14.35C684,845,693.57,873,696.66,882.34l-.83,7.92L690,946.14l-.9,8.51,137.05-28.6a11.8,11.8,0,0,0,9.28-9.49A14.66,14.66,0,0,0,832.4,904.2ZM663,871.86a4.82,4.82,0,1,1-3.73,5.71A4.82,4.82,0,0,1,663,871.86Zm55.67,30,1.21-.26.42,1.33a11.34,11.34,0,0,0,11.14,6.36l.3,1.42-.93.2c-7.9,3.8-6.63,11.26-6.63,11.26l-1.3.27-.24-1a10.4,10.4,0,0,0-9.46-7l-1.16.23-.32-1.52,1-.23C721.18,907.43,718.68,901.87,718.68,901.87Z" transform="translate(-599.74 -606.14)"/><path class="cls-3" d="M687.4,892.22l-13,57.17-35.68,7.44a2.64,2.64,0,0,1-3-1.31,5.6,5.6,0,0,1-1-4.52c2.28-7.19,4.36-15,2.54-23.65l-6.37-25.59C644.9,898.11,665.7,897.31,687.4,892.22Z" transform="translate(-599.74 -606.14)"/><path class="cls-3" d="M826.14,911.05c-5-5.68-10-12-11.8-20.69l-.66-2.47c-37.86,5.53-82.75-5.72-117.85,2.37L690,946.14,824.85,918a2.65,2.65,0,0,0,2.21-2.39A5.68,5.68,0,0,0,826.14,911.05Zm-94.39-.33-.93.2c-7.9,3.8-6.63,11.26-6.63,11.26l-1.3.27-.24-1a10.4,10.4,0,0,0-9.46-7l-1.16.23-.32-1.52,1-.23c8.42-5.55,5.92-11.11,5.92-11.11l1.21-.26.42,1.33a11.34,11.34,0,0,0,11.14,6.36Z" transform="translate(-599.74 -606.14)"/><path id="path14268" class="cls-4" d="M654.63,653.92a34,34,0,0,0-6.34,2.13c1.19,0,2.33-.07,3.45-.19-1.06.36-2.13.77-3.21,1.25a32.23,32.23,0,0,0,3.45-.18c-1.06.35-2.13.77-3.21,1.25a32.65,32.65,0,0,0,4-.29A37.82,37.82,0,0,0,649,659.3a32,32,0,0,0,3.44-.18c-1.06.35-2.12.77-3.2,1.25,1.18,0,2.33-.07,3.44-.19-1.06.36-2.12.77-3.2,1.25.24,0,.47,0,.71,0-.22.1-.44.16-.66.26a32,32,0,0,0,3.44-.18c-1.06.36-2.13.77-3.2,1.25a32,32,0,0,0,3.44-.19c-1.06.36-2.13.78-3.2,1.25a30.81,30.81,0,0,0,4-.28,37.82,37.82,0,0,0-3.77,1.41,32.2,32.2,0,0,0,3.45-.19c-1.07.36-2.13.78-3.21,1.25a32.23,32.23,0,0,0,3.45-.18c-1.07.36-2.13.77-3.21,1.25a29.15,29.15,0,0,0,12.94-2.91,33.46,33.46,0,0,0-3.37.22,30.43,30.43,0,0,0,3.13-1.29,33.43,33.43,0,0,0-3.37.23,33,33,0,0,0,3.13-1.3,35.28,35.28,0,0,0-3.93.33,32.59,32.59,0,0,0,3.68-1.45,33.23,33.23,0,0,0-3.37.23c1-.37,2.08-.8,3.13-1.3-1.16,0-2.28.1-3.37.23a31.38,31.38,0,0,0,3.13-1.29c-.24,0-.47,0-.71,0l.66-.27a33.27,33.27,0,0,0-3.37.22,30.43,30.43,0,0,0,3.13-1.29,33.23,33.23,0,0,0-3.37.23c1-.37,2.08-.8,3.13-1.29a31.39,31.39,0,0,0-3.94.33,31.25,31.25,0,0,0,3.68-1.46,33.63,33.63,0,0,0-3.37.23c1-.37,2.08-.8,3.13-1.29a33.66,33.66,0,0,0-3.37.22,30.43,30.43,0,0,0,3.13-1.29,33,33,0,0,0-6.6.79Zm3,15.65a13.79,13.79,0,0,0-4,1.6,17.12,17.12,0,0,0,2.47,0,15.51,15.51,0,0,0-2,1,17,17,0,0,0,2.46,0,14.27,14.27,0,0,0-2,1,16.85,16.85,0,0,0,2.85,0,14.31,14.31,0,0,0-2.32,1.08,17,17,0,0,0,2.46,0,14.27,14.27,0,0,0-2,1,18.6,18.6,0,0,0,2.46,0,13.21,13.21,0,0,0-2,1,12.94,12.94,0,0,0,8.56-1.93,19,19,0,0,0-2.39,0,12.36,12.36,0,0,0,1.89-1,17.27,17.27,0,0,0-2.39,0,12.68,12.68,0,0,0,1.88-1,17.89,17.89,0,0,0-2.76.06,12,12,0,0,0,2.23-1.13,18.83,18.83,0,0,0-2.38,0,12.68,12.68,0,0,0,1.88-1,19,19,0,0,0-2.39,0,11.49,11.49,0,0,0,1.89-1A16.12,16.12,0,0,0,657.6,669.57Zm3.85,8.12a7.78,7.78,0,0,0-2.83,1.34,8.24,8.24,0,0,0,1.65.22,8.8,8.8,0,0,0-1.41.85,8.2,8.2,0,0,0,1.65.21,9.6,9.6,0,0,0-1.41.85,7.7,7.7,0,0,0,1.93.19,8.87,8.87,0,0,0-1.68.94,9.13,9.13,0,0,0,1.66.22,8.39,8.39,0,0,0-1.42.84,7.66,7.66,0,0,0,1.66.22,9.19,9.19,0,0,0-1.42.85,6.49,6.49,0,0,0,5.95-1.34,7.61,7.61,0,0,0-1.61-.17,8.07,8.07,0,0,0,1.37-.9,8.32,8.32,0,0,0-1.61-.17,7.44,7.44,0,0,0,1.37-.89,7.55,7.55,0,0,0-1.87-.14,7.35,7.35,0,0,0,1.62-1,8.32,8.32,0,0,0-1.61-.17,7.79,7.79,0,0,0,1.37-.89,7.61,7.61,0,0,0-1.61-.17,8.48,8.48,0,0,0,1.37-.9A7.45,7.45,0,0,0,661.45,677.69Zm13,51.11a7.25,7.25,0,0,0-2.73,1.32,7.18,7.18,0,0,0,1.6.23,8.55,8.55,0,0,0-1.36.83,7.86,7.86,0,0,0,1.6.24,7.88,7.88,0,0,0-1.36.83,7.75,7.75,0,0,0,1.86.21,7.47,7.47,0,0,0-1.6.92,8.36,8.36,0,0,0,1.59.23,8.2,8.2,0,0,0-1.35.83,7,7,0,0,0,1.59.23,8.28,8.28,0,0,0-1.35.84,6,6,0,0,0,5.73-1.3,8.69,8.69,0,0,0-1.56-.18,7.05,7.05,0,0,0,1.32-.88,7.19,7.19,0,0,0-1.56-.18,7.12,7.12,0,0,0,1.32-.89,7.51,7.51,0,0,0-1.8-.15,7.08,7.08,0,0,0,1.55-1,7.19,7.19,0,0,0-1.56-.18,7.12,7.12,0,0,0,1.32-.89,8.69,8.69,0,0,0-1.56-.18,7.05,7.05,0,0,0,1.32-.88A7,7,0,0,0,674.5,728.8Z" transform="translate(-599.74 -606.14)"/><text class="cls-5" transform="translate(232.32 197.35) scale(1.05)">D</text><text class="cls-6" transform="translate(290.83 202.51) rotate(-3.26)">R</text><text class="cls-7" transform="translate(341.19 200.99)">U</text><text class="cls-8" transform="translate(388.61 196.87) rotate(10.64)">N</text><text class="cls-9" transform="translate(454.83 196.62) scale(1.06)">K</text><text class="cls-10" transform="translate(512.34 208.27)">E<tspan class="cls-11" x="47.6" y="-5.82">N</tspan></text><text class="cls-12" transform="translate(256.47 300.2)">W</text><text class="cls-13" transform="translate(310.13 302.14) scale(0.86)">I</text><text class="cls-14" transform="translate(334.59 294.38) scale(1.12 1)">Z</text><text class="cls-15" transform="translate(373.47 300.2)">A<tspan class="cls-16" x="51.47" y="0">R</tspan><tspan class="cls-17" x="102.91" y="10.68">D</tspan><tspan x="147.05" y="0">S</tspan></text><path class="cls-2" d="M777.39,682.53h3.43s.63-16.22,18.87-20.74h2v-3.12s-15.75-1.09-20.59-18.25l-.31-3h-2.65s2.81,12.79-17.31,20.74l-2.29,0v3.33l2.54,0s14.68,3,16.79,18.81l.1,2.32" transform="translate(-599.74 -606.14)"/><path class="cls-2" d="M610.9,742h2s.37-9.62,11.19-12.3h1.21v-1.85A14.42,14.42,0,0,1,613.12,717l-.18-1.76h-1.57s1.66,7.59-10.27,12.31h-1.36v2l1.51,0a13.19,13.19,0,0,1,10,11.15l.06,1.38" transform="translate(-599.74 -606.14)"/></svg>