<?xml version="1.0" encoding="utf-8"?>
<!-- Generator: Adobe Illustrator 26.0.1, SVG Export Plug-In . SVG Version: 6.00 Build 0)  -->
<svg version="1.1" id="Layer_1" xmlns="http://www.w3.org/2000/svg" xmlns:xlink="http://www.w3.org/1999/xlink" x="0px" y="0px"
	 viewBox="0 0 614.6 345.4" style="enable-background:new 0 0 614.6 345.4;" xml:space="preserve">
<style type="text/css">
	.st0{fill:#23221F;}
	.st1{fill:#939393;}
	.st2{opacity:0.38;fill:#606060;enable-background:new    ;}
	.st3{enable-background:new    ;}
	.st4{fill:#050102;}
	.st5{fill:#323232;}
</style>
<path class="st0" d="M232.7,284.6c-4.1-4.7-8.3-9.8-9.7-16.4l0,0l-17.6-85.8c2.4-7,5-12.1,2-21.9c-2-6.6-7.3-10-14.8-11.5l0,0
	c-20.1-3.9-41.6-6.1-62.8-16.9c-4.9-8-9.2-16.4-11.9-25.9c1.2-0.3,2.3-1,3.2-1.9c0.8-1.3,1.1-2.9,0.8-4.4c-0.3-1.5-1.2-2.9-2.5-3.7
	c-1.2-0.5-2.5-0.6-3.7-0.4L104,47.1l2.5-0.5c1.7-0.3,3.2-1.3,4.2-2.7c0.8-1.2,1.2-2.7,1-4.2c-0.1-1.4-0.6-2.7-1.6-3.7
	c-0.4-0.5-1.2-0.4-1.9-0.6c2.4-4.2,5.4-8.1,8.9-11.5c0.3-0.3,0.4-0.7,0.3-1.1l-4.2-19.1c-0.1-0.5-0.6-0.9-1.2-0.9l0,0H112
	C100.6,3.2,90.9,1.5,80.9,0c-0.1,0-0.3,0-0.4,0L52.2,5.9C52,6,51.9,6,51.8,6.1C43.2,11.4,35,16.9,24.3,21c-0.5,0.2-0.9,0.8-0.8,1.3
	l3.8,19.2c0.1,0.4,0.4,0.7,0.7,0.9c4.6,1.7,8.9,4,12.8,7c-0.5,0.5-1.2,0.7-1.5,1.3c-0.4,1.3-0.4,2.7,0.1,4c0.5,1.4,1.4,2.6,2.6,3.5
	c1.5,0.9,3.3,1.2,5,0.8l2.5-0.5l8.8,49.4c-1.2,0.3-2.3,0.9-3.2,1.9c-0.9,1.3-1.2,2.9-0.9,4.4c0.3,1.5,1.2,2.9,2.4,3.7
	c1,0.6,2.3,0.5,3.7,0.4c1.2,9.5,1,19.1-0.5,28.5c-15.1,18.3-33.9,29-50.8,40.5l0,0c-6.2,4.5-9.7,9.6-9,16.5
	c1.1,10.1,5.5,13.9,10.5,19.2l18.2,85.6c1.4,6.7-0.4,13-2.3,18.9c-1.2,4.3-0.4,8.9,2.2,12.5c2.7,4,7.6,6,12.3,5l31.6-6.6l2-8.7
	l13-57.2l2-8.9l-25.8-71.9l74.3-36.6l38.6,70l-60.4,35.4l-22.6-53.2l38-18.5l14.7,27.5l-16,9.9l-3.7-7.4c13.5-3.1,6.3-22.2-5.2-17
	l-12.8,6.5c0,0-6,2.1-3,9s12.1,27,12.1,27s3.6,5.7,10.8,1.1s33.9-19.6,33.9-19.6s4.8-3.9,0.7-10S138,171,138,171
	c-2-3.1-6.1-4.2-9.3-2.4c-6.1,2.9-49.1,23.3-49.1,23.3s-7.2,3.3-2.8,14.4c7.5,19.3,17.1,47.3,20.2,56.7l-0.8,7.9l-5.9,55.9l-0.9,8.5
	l137-28.6c4.7-1,8.4-4.7,9.3-9.5C236.7,292.8,235.5,288.1,232.7,284.6z M63.3,252.3c2.6-0.5,5.2,1.1,5.7,3.7c0,0,0,0,0,0
	c0.5,2.6-1.1,5.2-3.7,5.7c0,0,0,0,0,0c-2.6,0.5-5.2-1.1-5.7-3.7c0,0,0,0,0,0C59,255.4,60.6,252.8,63.3,252.3
	C63.3,252.3,63.3,252.3,63.3,252.3z M118.9,282.3l1.2-0.3l0.4,1.3c2,4.2,6.5,6.7,11.1,6.4l0.3,1.4l-0.9,0.2
	c-7.9,3.8-6.6,11.3-6.6,11.3l-1.3,0.3l-0.2-1c-1.4-4.1-5.2-6.8-9.5-7l-1.2,0.2l-0.3-1.5l1-0.2C121.4,287.9,118.9,282.3,118.9,282.3
	L118.9,282.3z"/>
<path class="st1" d="M87.7,272.7l-13,57.2L39,337.3c-1.2,0.3-2.4-0.2-3-1.3c-1-1.3-1.3-2.9-1-4.5c2.3-7.2,4.4-15,2.5-23.7l-6.4-25.6
	C45.2,278.5,66,277.8,87.7,272.7z"/>
<path class="st1" d="M226.4,291.5c-5-5.7-10-12-11.8-20.7l-0.7-2.5c-37.9,5.5-82.8-5.7-117.8,2.4l-5.9,55.9l134.9-28.1
	c1.2-0.2,2.1-1.2,2.2-2.4C227.7,294.5,227.3,292.8,226.4,291.5z M132,291.2l-0.9,0.2c-7.9,3.8-6.6,11.3-6.6,11.3l-1.3,0.3l-0.2-1
	c-1.4-4.1-5.2-6.8-9.5-7l-1.2,0.2l-0.3-1.5l1-0.2c8.4-5.5,5.9-11.1,5.9-11.1l1.2-0.3l0.4,1.3c2,4.2,6.5,6.7,11.1,6.4L132,291.2z"/>
<path id="path14268" class="st2" d="M54.9,34.4c-2.2,0.5-4.3,1.2-6.3,2.1c1.2,0,2.3-0.1,3.4-0.2c-1.1,0.4-2.1,0.8-3.2,1.2
	c1.2,0,2.3-0.1,3.4-0.2c-1.1,0.4-2.1,0.8-3.2,1.2c1.3,0,2.7-0.1,4-0.3c-1.3,0.4-2.5,0.9-3.8,1.4c1.1,0,2.3-0.1,3.4-0.2
	c-1.1,0.4-2.1,0.8-3.2,1.2c1.2,0,2.3-0.1,3.4-0.2c-1.1,0.4-2.1,0.8-3.2,1.2c0.2,0,0.5,0,0.7,0C50.2,42,50,42,49.8,42.1
	c1.1,0,2.3-0.1,3.4-0.2c-1.1,0.4-2.1,0.8-3.2,1.2c1.1,0,2.3-0.1,3.4-0.2c-1.1,0.4-2.1,0.8-3.2,1.2c1.3,0,2.7-0.1,4-0.3
	c-1.3,0.4-2.5,0.9-3.8,1.4c1.2,0,2.3-0.1,3.4-0.2c-1.1,0.4-2.1,0.8-3.2,1.2c1.2,0,2.3-0.1,3.4-0.2c-1.1,0.4-2.1,0.8-3.2,1.2
	c4.5,0,8.9-1,12.9-2.9c-1.1,0-2.3,0.1-3.4,0.2c1.1-0.4,2.1-0.8,3.1-1.3c-1.1,0-2.3,0.1-3.4,0.2c1.1-0.4,2.1-0.8,3.1-1.3
	c-1.3,0-2.6,0.1-3.9,0.3c1.3-0.4,2.5-0.9,3.7-1.5c-1.1,0-2.3,0.1-3.4,0.2c1-0.4,2.1-0.8,3.1-1.3c-1.2,0-2.3,0.1-3.4,0.2
	c1.1-0.4,2.1-0.8,3.1-1.3c-0.2,0-0.5,0-0.7,0l0.7-0.3c-1.1,0-2.3,0.1-3.4,0.2c1.1-0.4,2.1-0.8,3.1-1.3c-1.1,0-2.3,0.1-3.4,0.2
	c1-0.4,2.1-0.8,3.1-1.3c-1.3,0-2.6,0.1-3.9,0.3c1.3-0.4,2.5-0.9,3.7-1.5c-1.1,0-2.3,0.1-3.4,0.2c1-0.4,2.1-0.8,3.1-1.3
	c-1.1,0-2.3,0.1-3.4,0.2c1.1-0.4,2.1-0.8,3.1-1.3C59.2,33.7,57,33.9,54.9,34.4L54.9,34.4z M57.9,50c-1.4,0.3-2.8,0.9-4,1.6
	c0.8,0.1,1.6,0.1,2.5,0c-0.7,0.3-1.4,0.6-2,1c0.8,0.1,1.6,0.1,2.5,0c-0.7,0.3-1.4,0.6-2,1c0.9,0.1,1.9,0.1,2.8,0
	c-0.8,0.3-1.6,0.7-2.3,1.1c0.8,0.1,1.6,0.1,2.5,0c-0.7,0.3-1.4,0.6-2,1c0.8,0.1,1.6,0.1,2.5,0c-0.7,0.3-1.4,0.6-2,1
	c3,0.4,6-0.3,8.6-1.9c-0.8-0.1-1.6-0.1-2.4,0c0.7-0.3,1.3-0.6,1.9-1c-0.8-0.1-1.6-0.1-2.4,0c0.7-0.3,1.3-0.6,1.9-1
	c-0.9-0.1-1.8,0-2.8,0.1c0.8-0.3,1.5-0.7,2.2-1.1c-0.8-0.1-1.6-0.1-2.4,0c0.7-0.3,1.3-0.6,1.9-1c-0.8-0.1-1.6-0.1-2.4,0
	c0.7-0.3,1.3-0.6,1.9-1C60.8,49.6,59.3,49.7,57.9,50L57.9,50z M61.7,58.1c-1,0.3-2,0.7-2.8,1.3c0.5,0.1,1.1,0.2,1.7,0.2
	c-0.5,0.2-1,0.5-1.4,0.9c0.5,0.1,1.1,0.2,1.7,0.2c-0.5,0.2-1,0.5-1.4,0.9c0.6,0.1,1.3,0.2,1.9,0.2c-0.6,0.3-1.2,0.6-1.7,0.9
	c0.5,0.1,1.1,0.2,1.7,0.2c-0.5,0.2-1,0.5-1.4,0.8c0.5,0.1,1.1,0.2,1.7,0.2c-0.5,0.2-1,0.5-1.4,0.9c2.1,0.6,4.4,0.1,6-1.3
	c-0.5-0.1-1.1-0.2-1.6-0.2c0.5-0.3,0.9-0.6,1.4-0.9c-0.5-0.1-1.1-0.2-1.6-0.2c0.5-0.2,0.9-0.5,1.4-0.9c-0.6-0.1-1.2-0.2-1.9-0.1
	c0.6-0.3,1.1-0.6,1.6-1c-0.5-0.1-1.1-0.2-1.6-0.2c0.5-0.2,0.9-0.5,1.4-0.9c-0.5-0.1-1.1-0.2-1.6-0.2c0.5-0.3,0.9-0.6,1.4-0.9
	C63.9,57.9,62.8,57.9,61.7,58.1L61.7,58.1z M74.7,109.2c-1,0.2-1.9,0.7-2.7,1.3c0.5,0.1,1.1,0.2,1.6,0.2c-0.5,0.2-0.9,0.5-1.4,0.8
	c0.5,0.1,1.1,0.2,1.6,0.2c-0.5,0.2-0.9,0.5-1.4,0.8c0.6,0.1,1.2,0.2,1.9,0.2c-0.6,0.2-1.1,0.5-1.6,0.9c0.5,0.1,1.1,0.2,1.6,0.2
	c-0.5,0.2-0.9,0.5-1.4,0.8c0.5,0.1,1.1,0.2,1.6,0.2c-0.5,0.2-0.9,0.5-1.4,0.8c2,0.6,4.2,0.1,5.7-1.3c-0.5-0.1-1-0.2-1.6-0.2
	c0.5-0.2,0.9-0.5,1.3-0.9c-0.5-0.1-1-0.2-1.6-0.2c0.5-0.2,0.9-0.5,1.3-0.9c-0.6-0.1-1.2-0.2-1.8-0.1c0.6-0.3,1.1-0.6,1.5-1
	c-0.5-0.1-1-0.2-1.6-0.2c0.5-0.2,0.9-0.5,1.3-0.9c-0.5-0.1-1-0.2-1.6-0.2c0.5-0.2,0.9-0.5,1.3-0.9C76.8,109,75.7,109,74.7,109.2
	L74.7,109.2z"/>
<g class="st3">
	<path class="st4" d="M255,79.1c1.9,0.4,4.5,1.5,7.8,3.3c3.3,1.8,6.6,3.9,10,6.2c3.3,2.3,6.3,4.6,8.8,6.8c2.5,2.2,4,3.8,4.5,4.7
		c0.4,0.9,0.5,2.7,0.4,5.2c-0.1,2.5-0.4,5.6-0.8,9.2c-0.5,3.6-1.1,7.6-1.8,11.9c-0.8,4.3-1.6,8.7-2.5,13.1c-0.9,4.4-2,8.6-3,12.7
		c-1.1,4.1-2.2,7.7-3.3,10.8c-0.5,1.5-1.5,3.2-3.1,4.9c-1.6,1.8-3.5,3.6-5.6,5.3c-2.2,1.7-4.4,3.4-6.8,4.9c-2.4,1.5-4.7,2.8-6.8,3.8
		c-2.1,1-4,1.7-5.6,2.1c-1.6,0.4-2.8,0.3-3.3-0.3s-1.2-2.4-1.8-5.4c-0.6-3.1-1.2-6.9-1.8-11.6c-0.6-4.7-1.1-9.9-1.6-15.7
		c-0.5-5.8-0.9-11.7-1.3-17.7c-0.4-6-0.7-11.9-0.9-17.7c-0.2-5.8-0.4-11-0.4-15.7c0-4.7,0-8.6,0.2-11.7c0.2-3.2,0.5-5.1,1-5.7
		c0.4-0.5,1.3-0.9,2.9-1.4c1.6-0.5,3.3-0.9,5.2-1.3c1.9-0.4,3.8-0.7,5.7-0.8C252.8,78.9,254.2,78.9,255,79.1z M254.2,97
		c-0.7,0.5-1.1,1.9-1.4,4.3c-0.3,2.4-0.5,5.3-0.6,8.6c-0.1,3.3-0.2,6.9-0.2,10.7c0,3.8,0,7.2-0.1,10.3c-0.2,8.1-0.3,14.5-0.2,19.1
		c0,4.7,0.1,8.1,0.3,10.4c0.1,2.3,0.4,3.8,0.6,4.4c0.3,0.6,0.7,0.9,1.1,0.9c0.4,0,1-0.3,1.9-0.8c0.9-0.6,1.9-1.3,2.9-2.1
		c1-0.8,2-1.8,3-2.8c0.9-1,1.6-1.9,2-2.6c0.4-0.8,0.8-2.2,1.4-4.4c0.6-2.2,1.1-4.8,1.7-7.8c0.6-3,1.1-6.1,1.7-9.5
		c0.6-3.3,1.1-6.5,1.5-9.6c0.4-3.1,0.8-5.8,1-8.2c0.2-2.4,0.4-4.1,0.4-5.2c-0.1-2-0.9-4-2.4-6.1c-1.5-2.1-3.2-3.9-5.2-5.5
		c-1.9-1.6-3.8-2.8-5.6-3.7C256,96.7,254.8,96.5,254.2,97z"/>
</g>
<g class="st3">
	<path class="st4" d="M338.7,100.9c0.5,0.5,1,2,1.6,4.5c0.6,2.5,1.1,5.2,1.5,8.1c0.4,2.9,0.6,5.7,0.7,8.3c0.1,2.6,0,4.3-0.4,5.1
		c-0.3,0.6-1.2,1.6-2.5,3c-1.4,1.5-2.9,3.1-4.7,4.9c-1.8,1.8-3.6,3.6-5.6,5.4c-1.9,1.8-3.6,3.3-5.1,4.5c0.8,1.4,1.8,3.2,3,5.4
		s2.5,4.6,3.9,7c1.4,2.5,2.8,5,4.1,7.6s2.6,5,3.7,7.1c1.1,2.1,2,3.9,2.7,5.4c0.7,1.4,1.1,2.3,1.1,2.6c0,0.4-0.1,1.1-0.5,1.9
		c-0.4,0.8-0.8,1.6-1.4,2.3c-0.6,0.7-1.2,1.3-1.9,1.8c-0.7,0.5-1.4,0.6-2,0.4c-0.4-0.1-1.1-0.8-2.1-2.1c-1.1-1.3-2.3-3-3.9-5
		c-1.5-2-3.2-4.3-5-6.9c-1.8-2.6-3.6-5.2-5.5-7.8c-1.9-2.6-3.6-5.2-5.3-7.6c-1.7-2.5-3.1-4.6-4.4-6.5c0.3,9.3,0.6,16.5,0.6,21.5
		c0.1,5,0.1,8.7,0.2,11c0,2.8-0.1,4.4-0.3,4.7c-0.3,0-0.9-0.3-1.8-1c-0.9-0.7-1.9-1.6-3-2.6c-1-1-2-2-2.9-3.1
		c-0.9-1-1.5-1.8-1.7-2.3c-0.2-1.2-0.7-4.5-1.4-10c-0.3-2.4-0.7-5.4-1-9c-0.4-3.6-0.8-7.9-1.3-13c-0.5-5.1-1.1-11.1-1.9-17.9
		c-0.8-6.9-1.6-14.8-2.4-23.7c-1.6,0-2.9,0.1-3.9,0.2c-1,0.1-1.7,0.2-2.3,0.3c-0.5,0.1-0.9,0.2-1.2,0.1c-0.3,0-0.5-0.2-0.7-0.6
		c-0.4-0.7-0.7-1.9-1-3.6c-0.3-1.7-0.5-3.4-0.6-5c-0.1-1.8,0-3.6,0.4-5.4c0.4-1.8,0.9-3,1.6-3.5c0.3-0.3,1.6-0.3,3.8-0.1
		c2.2,0.2,4.6,0.4,7.2,0.7c2.6,0.3,5.1,0.6,7.5,1.1c2.4,0.4,4,0.7,4.7,0.8c0.6,0.1,1.7,0.4,3.1,0.7c1.5,0.3,3.1,0.8,5.1,1.3
		c1.9,0.6,3.9,1.2,6.1,1.9c2.1,0.7,4.2,1.4,6.1,2.2c1.9,0.8,3.7,1.6,5.3,2.4C336.6,99.2,337.9,100,338.7,100.9z M310.7,140.4
		c0.8-0.5,1.8-1.4,3.1-2.8c1.3-1.4,2.6-2.9,4.1-4.7c1.5-1.7,3-3.6,4.5-5.5c1.5-1.9,2.9-3.7,4.1-5.4c1.2-1.7,2.2-3.1,2.9-4.3
		c0.7-1.2,1.1-2,1.1-2.3c0-0.6-0.6-1.3-1.8-2.1c-1.2-0.8-2.7-1.6-4.5-2.4c-1.8-0.8-4-1.5-6.5-2.3c-2.5-0.7-5-1.3-7.5-1.8
		L310.7,140.4z"/>
</g>
<g class="st3">
	<path class="st4" d="M385.3,84.1c0.3,0.4,0.6,2.2,1,5.4c0.4,3.3,0.9,7.3,1.3,12.2c0.5,4.8,1,10.1,1.5,15.8c0.5,5.7,1,11.2,1.5,16.4
		c0.4,5.2,0.9,9.9,1.2,14c0.4,4.1,0.6,6.9,0.8,8.5c0.3,2.4,0.7,5.4,1.3,8.9c0.6,3.5,1.2,6.9,1.7,10.3c0.6,3.4,1.1,6.3,1.4,8.8
		c0.4,2.5,0.4,4,0.1,4.4c-0.3,0.4-1.2,0.4-2.7-0.1c-1.5-0.5-3.2-1.3-5-2.3c-1.8-1-3.5-2.1-5-3.2c-1.6-1.2-2.6-2.2-3-3
		c-0.5-0.9-0.9-2.4-1.5-4.5c-0.5-2.1-1.1-4.9-1.7-8.4c-1.2,2.2-2.5,4.3-3.9,6.6c-1.4,2.2-2.8,4.3-4.2,6.2c-1.3,1.9-2.6,3.4-3.7,4.6
		c-1.1,1.2-1.9,1.8-2.5,1.7c-0.9-0.1-2.3-1.3-4.1-3.6c-1.8-2.3-3.7-4.9-5.6-7.8c-1.9-2.9-3.6-5.7-5-8.3c-1.5-2.6-2.3-4.4-2.5-5.3
		c-0.1-0.5-0.1-1.8-0.1-3.7c0-1.9,0-4.2,0.1-6.9c0-2.7,0.1-5.6,0.3-8.8c0.1-3.2,0.3-6.3,0.4-9.4c0.1-3.1,0.3-6,0.4-8.8
		c0.1-2.8,0.3-5.1,0.5-6.9c0.2-2.8,0.4-5.7,0.7-8.7c0.3-3,0.6-5.8,0.9-8.4c0.3-2.6,0.6-4.8,0.9-6.7c0.3-1.8,0.6-3,0.9-3.4
		c0.2-0.4,0.7-0.6,1.7-0.7c0.9-0.1,2,0,3.2,0.2c1.2,0.2,2.2,0.6,3.2,1.1c1,0.5,1.7,1.1,2,1.8c0.2,0.4,0.3,2.2,0.3,5.3
		s0.1,6.8,0.1,11.1s0,8.9-0.1,13.9s-0.1,9.7-0.2,14c-0.1,4.4-0.2,8.1-0.2,11.2c0,3.1-0.1,4.9-0.1,5.4c0,1,0.7,2.5,2.1,4.6
		c1.4,2.1,2.7,4.6,3.8,7.6l8.5-9.5c-0.1-2.5-0.2-5.7-0.2-9.7c0-3.9-0.1-8.1-0.2-12.6c-0.1-4.4-0.2-8.9-0.2-13.4
		c0-4.5-0.1-8.7-0.1-12.4s0-6.9,0.1-9.3c0-2.5,0.1-3.9,0.2-4.2c0.3-0.7,0.8-1.8,1.7-3.2c0.9-1.4,1.8-2.7,2.8-3.9c1-1.2,2-2.2,3-2.9
		C384.1,83.5,384.8,83.4,385.3,84.1z"/>
</g>
<g class="st3">
	<path class="st4" d="M459.4,100.9c0.1,0.4,0,1.6-0.4,3.8c-0.4,2.1-0.8,4.7-1.4,7.7c-0.6,3-1.3,6.2-2.1,9.5
		c-0.8,3.4-1.6,6.5-2.5,9.5c-1.8,6.6-3.6,13.1-5.6,19.5c-1.9,6.4-3.7,12.1-5.3,17.2c-1.6,5.1-3.1,9.2-4.2,12.4c-1.2,3.2-1.9,5-2,5.3
		c-0.3,0.4-0.8,1-1.6,1.8c-0.8,0.8-1.6,1.5-2.5,2.2c-0.9,0.7-1.7,1.3-2.5,1.8s-1.3,0.7-1.7,0.6c-0.6-0.7-1.4-3.4-2.5-8
		c-0.4-2-1-4.5-1.6-7.5c-0.6-3-1.3-6.6-2-11c-0.7-4.3-1.6-9.4-2.5-15.3c-0.9-5.9-2-12.7-3.1-20.5c-0.8,7.3-1.6,13.7-2.3,19.3
		c-0.7,5.5-1.3,10.3-1.8,14.4c-0.5,4.1-1,7.5-1.5,10.3c-0.4,2.8-0.8,5.1-1.2,7c-0.8,4.2-1.4,6.6-1.8,7.2c-0.9-0.2-1.8-0.8-2.6-1.8
		c-0.9-1-1.6-2.2-2.3-3.6c-0.7-1.4-1.2-2.7-1.7-3.9c-0.4-1.3-0.7-2.2-0.7-2.7c0-0.4,0-2,0.1-5c0.1-3,0.3-6.8,0.6-11.5
		c0.3-4.6,0.6-9.9,1-15.7s0.9-11.7,1.4-17.7c0.5-6,1.2-11.8,1.9-17.5c0.7-5.7,1.5-10.7,2.3-15.1c0.1-0.7,1.2-1.5,3.2-2.3
		c2-0.9,4.2-1.6,6.7-2.3c2.5-0.7,4.7-1.3,6.8-1.7c2.1-0.5,3.4-0.7,3.8-0.6c0.4,0.1,0.5,1.1,0.6,3.2c0,2.1,0,4.7-0.1,7.9
		c-0.1,3.2-0.2,6.7-0.2,10.6c-0.1,3.9,0,7.7,0.1,11.2c0,3.8,0.1,8.2,0.3,13c0.1,4.1,0.4,9.1,0.7,14.9c0.3,5.8,0.8,12.3,1.3,19.4
		c0.9-4.8,1.9-9.8,2.9-15.2c1.1-5.4,2.1-10.7,3.2-15.9c1.1-5.3,2.1-10.3,3.2-15.2c1.1-4.9,2-9.2,2.8-12.9c0.8-3.8,1.5-6.8,2.1-9
		c0.6-2.3,0.9-3.5,1-3.6c0.3-0.3,1.2-0.3,2.6,0.1c1.4,0.4,2.9,1,4.5,1.7c1.6,0.7,3,1.5,4.3,2.3C458.6,99.9,459.3,100.5,459.4,100.9z
		"/>
</g>
<g class="st3">
	<path class="st4" d="M489.6,130.9c0.9,1.7,2.1,4.3,3.7,7.7c1.6,3.4,3.4,7.2,5.3,11.3c1.9,4.1,3.9,8.4,5.8,12.7
		c1.9,4.3,3.7,8.3,5.2,12c1.5,3.7,2.7,6.7,3.6,9.2c0.9,2.5,1.1,3.8,0.9,4.1c-0.6,0.5-1.4,0.7-2.5,0.7s-2.2-0.1-3.3-0.4
		c-1.1-0.3-2.1-0.7-3.1-1.1c-1-0.5-1.7-1-2.1-1.6c-3.8-5.7-7.2-10.9-10.1-15.7c-2.9-4.7-5.5-8.9-7.7-12.4c-2.5-4-4.7-7.6-6.6-11
		c-0.7,1-1.4,2.1-2.1,3.1s-1.4,1.9-2.1,2.8c-0.3,4.8-0.6,9.4-0.9,13.7s-0.6,8-0.9,11.3c-0.3,3.2-0.6,5.8-0.9,7.6
		c-0.3,1.9-0.6,2.8-0.9,2.8c-0.8,0.2-1.6-0.1-2.6-0.9c-1-0.8-1.9-1.7-2.8-2.8c-0.9-1.1-1.7-2.4-2.4-3.6c-0.7-1.3-1.1-2.4-1.3-3.3
		c-0.6-9.5-1-18-1.4-25.5c-0.4-7.5-0.7-14.2-0.9-19.9c-0.2-5.8-0.3-10.8-0.4-15.1c-0.1-4.3-0.1-7.9-0.1-11c0-7.1,0.2-12,0.7-14.7
		c0.4-2,1.3-3.9,2.8-5.8c1.5-1.9,3.2-3.5,4.9-4.8c1.8-1.4,3.4-2.4,4.9-3.1s2.5-0.9,3-0.6c0.4,0.3,0.7,2.1,0.9,5.3
		c0.2,3.3,0.2,7.4,0.1,12.5c-0.1,5-0.2,10.7-0.4,16.9c-0.2,6.2-0.4,12.5-0.7,18.7c3.3-6.5,6.7-12.8,10.2-19.1
		c3.5-6.3,6.7-11.9,9.6-16.8c2.9-4.9,5.5-9,7.6-12c2.1-3.1,3.4-4.6,4-4.6c0.6,0,1.3,0.6,2.1,1.8c0.9,1.2,1.6,2.7,2.4,4.6
		c0.7,1.9,1.2,3.9,1.5,6.1c0.3,2.2,0.1,4.3-0.6,6.3c-0.4,1.1-1.3,2.9-2.7,5.3c-1.4,2.4-3.2,5.2-5.3,8.3c-2.1,3.1-4.4,6.5-6.9,10.2
		C494.7,123.5,492.2,127.2,489.6,130.9z"/>
</g>
<g class="st3">
	<path class="st4" d="M557.4,117.8c-0.4,0.4-2.6,0.5-6.6,0.1c-4-0.4-10.4-0.9-19.1-1.7c0,3,0,6.6,0.1,10.9c0,4.3,0,8.9-0.1,13.8
		c6.7,0.6,12,1.2,15.7,1.7c3.8,0.5,5.7,0.9,5.9,1.1c0.4,0.4,0.5,1.1,0.4,2.2c-0.1,1.1-0.3,2.4-0.7,3.7c-0.4,1.3-0.8,2.6-1.3,3.8
		c-0.5,1.2-1.1,2-1.6,2.4c-0.4,0.2-2.2,0.4-5.3,0.7c-3.1,0.3-7.5,0.6-13.1,0.9c0,3.9,0,7.7-0.1,11.4c0,3.8-0.1,7.2-0.2,10.4
		c8.7,0.1,15,0.2,19,0.5c4,0.2,6.2,0.5,6.5,0.9c0.4,0.4,0.4,1.3,0.1,2.6c-0.3,1.3-0.8,2.6-1.5,4c-0.7,1.4-1.4,2.8-2.2,4.1
		c-0.8,1.3-1.4,2.3-1.8,2.8c-0.2,0.2-1.3,0.2-3.2,0.2c-2,0-4.2-0.2-6.6-0.3c-2.4-0.2-4.8-0.4-7-0.6c-2.2-0.2-3.7-0.4-4.4-0.6
		c-1.3-0.4-2.8-1.2-4.3-2.2c-1.5-1-2.7-2.4-3.6-4c-0.2-0.4-0.5-1.9-0.9-4.5c-0.4-2.6-0.8-5.8-1.3-9.7c-0.5-3.9-0.9-8.4-1.3-13.3
		c-0.4-4.9-0.9-9.9-1.3-15.1c-0.5-5.1-0.9-10.1-1.2-15.1c-0.4-4.9-0.7-9.4-0.9-13.4c-0.2-4-0.3-7.3-0.3-9.9c0-2.6,0.1-4.2,0.4-4.8
		c0.3-0.7,1.5-1.3,3.8-1.6c2.2-0.4,4.9-0.6,8.1-0.7c3.1-0.1,6.5-0.2,10.1-0.1c3.6,0.1,7,0.2,10.1,0.5c3.1,0.2,5.8,0.5,7.9,0.8
		c2.2,0.3,3.4,0.6,3.6,0.9c0.4,0.4,0.6,1.5,0.6,3.1c0,1.6,0,3.4-0.3,5.3c-0.2,1.9-0.5,3.8-0.9,5.5
		C558.2,116.1,557.8,117.3,557.4,117.8z"/>
</g>
<g class="st3">
	<path class="st4" d="M614.2,94.8c0.2,0.4,0.3,1.6,0.3,3.8c0,2.2,0,4.8,0,7.8c0,3-0.2,6.3-0.3,9.7c-0.2,3.5-0.4,6.7-0.7,9.7
		c-0.5,6.8-1.2,13.5-1.9,20.2c-0.7,6.6-1.4,12.6-2.1,17.9c-0.7,5.3-1.3,9.6-1.9,13c-0.6,3.4-0.9,5.2-1,5.6c-0.2,0.4-0.6,1.1-1.2,2
		c-0.6,0.9-1.3,1.8-2,2.6c-0.7,0.9-1.4,1.6-2.1,2.2s-1.2,0.9-1.5,0.9c-0.7-0.6-2-3.1-3.9-7.4c-0.8-1.9-1.8-4.2-3-7.1
		c-1.2-2.8-2.5-6.3-4-10.4c-1.5-4.1-3.3-9-5.3-14.6c-2-5.6-4.3-12.1-6.8-19.6c0.5,7.3,1,13.8,1.3,19.4c0.4,5.6,0.6,10.4,0.9,14.5
		c0.2,4.1,0.4,7.6,0.5,10.4c0.1,2.8,0.1,5.2,0.1,7.1c0,4.3-0.1,6.8-0.4,7.4c-0.9,0-1.9-0.4-2.9-1.3c-1-0.9-2-1.9-2.9-3.1
		c-0.9-1.2-1.7-2.4-2.4-3.6c-0.7-1.2-1.1-2-1.1-2.6c-0.1-0.4-0.4-2-0.8-5c-0.4-3-1-6.7-1.5-11.4c-0.6-4.6-1.2-9.8-1.9-15.6
		s-1.3-11.7-1.9-17.7c-0.6-6-1.1-11.9-1.4-17.5c-0.4-5.7-0.5-10.8-0.5-15.3c0-0.7,0.9-1.7,2.7-2.9c1.8-1.2,3.8-2.4,6.1-3.5
		c2.3-1.1,4.4-2.1,6.4-3c2-0.9,3.2-1.3,3.6-1.3c0.4,0,0.7,1,1.1,3.1c0.4,2.1,0.9,4.7,1.3,7.8c0.5,3.1,1.1,6.6,1.7,10.5
		c0.7,3.9,1.4,7.5,2.2,11c0.7,3.8,1.6,8,2.7,12.8c0.9,4,2,8.9,3.4,14.5c1.4,5.6,3,11.9,4.9,18.8c0-4.8,0-10,0.1-15.5
		c0-5.5,0.1-10.9,0.2-16.3c0.1-5.4,0.2-10.6,0.3-15.5s0.3-9.4,0.4-13.2c0.1-3.9,0.3-6.9,0.4-9.3c0.1-2.3,0.2-3.6,0.3-3.8
		c0.3-0.4,1.1-0.5,2.6-0.3c1.4,0.1,3,0.4,4.7,0.8c1.7,0.4,3.2,0.9,4.6,1.5C613.3,94,614.1,94.4,614.2,94.8z"/>
</g>
<g class="st3">
	<path class="st5" d="M309.3,198.6c0.3,0.3,0.4,1.9,0.3,4.7c-0.1,2.8-0.4,6.4-0.9,10.7c-0.5,4.3-1,9.3-1.7,14.8
		c-0.7,5.5-1.4,11.1-2.2,16.8c-0.8,5.7-1.6,11.2-2.4,16.6c-0.8,5.4-1.6,10.2-2.4,14.4c-0.7,4.2-1.4,7.6-2,10.2
		c-0.6,2.6-1,3.8-1.4,3.8c-0.6,0-1.2-0.3-1.9-0.9c-0.7-0.6-1.4-1.4-2.1-2.3c-0.7-0.9-1.3-1.8-1.8-2.7c-0.5-0.9-0.8-1.6-0.9-2.2
		c-0.2-1-0.7-3-1.4-5.9c-0.7-2.9-1.3-6.5-1.9-10.9c-0.4-2.8-0.8-5.8-1.2-9c-0.4-2.7-0.8-5.6-1.2-8.8c-0.4-3.2-0.8-6.4-1.2-9.6
		c-0.3,2-0.7,4.5-1.2,7.3c-0.5,2.8-0.9,5.6-1.4,8.2c-0.6,3.1-1.1,6.2-1.8,9.3c-0.6,3.3-1.1,6.6-1.8,9.7c-0.6,3.2-1.3,6.1-1.9,8.6
		c-0.6,2.6-1.2,4.6-1.7,6.2c-0.5,1.6-0.9,2.4-1.2,2.5c-0.6,0.2-1.2,0-2-0.5c-0.8-0.5-1.6-1.2-2.4-2.1c-0.8-0.9-1.5-1.8-2.1-2.8
		c-0.6-1-1-1.8-1.1-2.5c-1.1-7.7-2-14.7-2.8-20.8c-0.7-6.1-1.4-11.6-1.9-16.4c-0.6-4.8-1-8.9-1.3-12.3c-0.3-3.5-0.6-6.5-0.8-9
		c-0.5-5.8-0.7-9.9-0.6-12.2c0.2-1.7,0.9-3.3,1.9-5c1-1.7,2.2-3.2,3.4-4.5c1.3-1.3,2.5-2.4,3.6-3.1c1.1-0.7,1.9-1,2.3-0.8
		c0.2,0.2,0.5,1.2,0.7,3.1c0.2,1.9,0.4,4.5,0.6,7.6c0.2,3.1,0.3,6.7,0.5,10.7c0.2,4,0.3,8.2,0.4,12.6c0.1,4.4,0.2,8.8,0.4,13.2
		c0.1,4.4,0.3,8.5,0.4,12.4c0.3-2,0.7-4.2,1-6.7c0.4-2.5,0.7-5.2,1.2-7.9c0.4-2.8,0.8-5.5,1.2-8.2c0.4-2.7,0.8-5.2,1.1-7.5
		c0.4-2.3,0.7-4.3,1.1-5.9c0.4-1.7,0.7-2.8,0.9-3.4c0.8-1.8,1.7-3.4,2.8-4.7c1.1-1.3,2.1-2.4,3.1-3.3c1-0.9,1.9-1.5,2.7-1.9
		c0.8-0.4,1.4-0.6,1.7-0.5c0.1,0,0.2,0.8,0.5,2.4c0.2,1.6,0.5,3.7,0.8,6.3c0.3,2.6,0.6,5.6,0.9,8.9c0.4,3.3,0.7,6.8,1.1,10.4
		c0.4,3.6,0.8,7.1,1.2,10.6c0.4,3.5,0.8,6.7,1.3,9.5c0.2-2.6,0.3-5.5,0.5-8.7c0.2-3.2,0.3-6.4,0.5-9.7c0.2-3.3,0.4-6.5,0.6-9.7
		c0.2-3.2,0.4-6,0.6-8.6c0.2-2.6,0.4-4.8,0.6-6.7c0.2-1.8,0.4-3.1,0.7-3.7c0.5-1.6,1.3-3.1,2.5-4.4c1.2-1.4,2.4-2.5,3.7-3.4
		c1.3-0.9,2.5-1.5,3.7-1.9C308.2,198.3,309,198.3,309.3,198.6z"/>
</g>
<g class="st3">
	<path class="st5" d="M339,225.5c-1.2,0.1-2.3,0.1-3.4,0.1c-1.1,0-2.2-0.1-3.1-0.1c-1.1,0-2.1,0-3-0.1c0.1,3.6,0.2,7.8,0.2,12.6
		c0,4.8-0.1,9.7-0.2,14.7c-0.1,5-0.2,9.9-0.4,14.7c-0.2,4.8-0.4,9-0.6,12.7c2.6-0.1,4.8-0.1,6.8,0c2,0.1,3,0.2,3.2,0.3
		c0.1,0.2,0.1,0.9,0,2c-0.1,1.1-0.3,2.3-0.6,3.7c-0.3,1.3-0.5,2.5-0.8,3.7c-0.3,1.1-0.5,1.8-0.6,2.1c-1.9,0.1-3.6,0.1-5.2,0.1
		c-1.6,0-3-0.1-4.1-0.3c-1.4-0.1-2.6-0.2-3.7-0.3c-1.1-0.2-2.2-0.4-3.5-0.7c-1-0.3-2.2-0.6-3.5-1s-2.7-0.9-4-1.5
		c-0.3-0.1-0.6-0.5-1-1.1c-0.4-0.6-0.7-1.3-1.1-2s-0.7-1.4-0.9-2.1c-0.2-0.7-0.4-1.2-0.4-1.4c0-0.1,0.3-0.2,0.9-0.3s1.5-0.2,2.5-0.3
		s2.3-0.2,3.7-0.3c1.4-0.1,2.8-0.2,4.4-0.3c-0.1-2-0.3-4.6-0.6-7.8c-0.2-3.2-0.5-6.7-0.7-10.5c-0.2-3.8-0.5-7.6-0.7-11.6
		c-0.2-4-0.4-7.7-0.6-11.1c-0.1-3.4-0.2-6.4-0.2-9c0-2.6,0.1-4.4,0.3-5.4c0.1-0.1,0.1-0.3,0.1-0.4s0-0.2,0.1-0.4l-2.8-0.7
		c-0.8-0.2-1.7-0.4-2.6-0.7c-1-0.3-1.9-0.6-2.8-0.9c-0.3-0.1-0.6-0.5-1.1-1.1c-0.4-0.6-0.9-1.3-1.3-2c-0.4-0.7-0.8-1.4-1.1-2.1
		c-0.3-0.6-0.5-1.1-0.5-1.4c0-0.1,0.9-0.3,2.6-0.5c1.7-0.2,3.9-0.3,6.5-0.5c2.6-0.1,5.4-0.2,8.4-0.3c3-0.1,5.8-0.1,8.4-0.1
		c2.6,0,4.8,0,6.6,0.1c1.8,0,2.8,0.1,2.9,0.3c0.2,0.2,0.2,0.9,0.1,2c-0.2,1.1-0.4,2.3-0.7,3.7s-0.6,2.5-0.9,3.7
		C339.5,224.6,339.2,225.3,339,225.5z"/>
</g>
<g class="st3">
	<path class="st5" d="M380.4,198.1c0,0.2-0.4,1.3-1.3,3.3c-0.8,2-2,4.5-3.4,7.6c-1.4,3.1-3,6.6-4.9,10.5c-1.9,3.9-3.8,8-5.7,12.1
		c-1.9,4.1-3.9,8.2-5.8,12.2c-1.9,4.1-3.7,7.7-5.4,11c-1.6,3.3-3,6.1-4.1,8.4c-1.1,2.3-1.8,3.8-2.2,4.5c9.1-0.8,15.6-1.3,19.4-1.5
		c3.8-0.2,5.9-0.2,6.2,0.1c0.4,0.3,0.4,1,0,2.2c-0.4,1.1-0.9,2.4-1.6,3.8c-0.7,1.4-1.5,2.7-2.2,3.9c-0.8,1.2-1.5,2.1-2,2.7
		c-0.1,0.2-0.8,0.3-2.1,0.4c-1.3,0.1-2.8,0.2-4.6,0.3c-1.8,0.1-3.8,0.2-6,0.2c-2.2,0.1-4.2,0.1-6.2,0.2c-1.9,0-3.6,0.1-5.1,0.1
		c-1.5,0-2.4,0-2.8-0.1c-0.6-0.1-1.2-0.4-1.8-1c-0.6-0.6-1.1-1.3-1.6-2.1c-0.5-0.8-0.9-1.6-1.3-2.5c-0.4-0.9-0.6-1.7-0.7-2.4
		c-0.1-0.7,0.3-2.5,1.3-5.4c0.9-2.9,2.2-6.3,3.7-10.3c1.5-4,3.2-8.3,5.1-13c1.9-4.6,3.7-9.1,5.5-13.4c1.8-4.3,3.4-8.2,4.8-11.6
		c1.4-3.4,2.4-5.9,3-7.5c-4.4,0.2-8.1,0.5-10.9,0.7c-2.9,0.2-5.1,0.3-6.8,0.4c-1.7,0.1-2.9,0.1-3.6,0.1c-0.7,0-1.1-0.1-1.3-0.4
		c-0.4-0.5-0.9-1.4-1.3-2.9c-0.4-1.5-0.7-3-0.9-4.7c-0.2-1.7-0.2-3.3-0.1-4.7c0.1-1.5,0.4-2.4,0.8-2.8c0.3-0.2,1.6-0.5,3.9-0.7
		c2.3-0.2,5.2-0.3,8.5-0.4c3.4-0.1,6.9-0.1,10.8-0.1c3.8,0,7.4,0.2,10.7,0.4c3.3,0.2,6.1,0.5,8.3,0.9
		C379.1,197,380.3,197.5,380.4,198.1z"/>
</g>
<g class="st3">
	<path class="st5" d="M426.6,255.2c0.2,0.2,0.1,1-0.1,2.4c-0.2,1.3-0.5,2.8-0.8,4.4c-0.4,1.6-0.7,3.1-1.1,4.4
		c-0.4,1.4-0.6,2.2-0.9,2.4h-1.2c-0.2,0-0.5,0-0.7-0.1c0.4,3.8,0.7,6.8,0.9,9.1c0.2,2.3,0.4,3.5,0.4,3.8c0,0.6-0.3,1.3-0.8,2.4
		c-0.5,1-1.1,2-1.7,2.8c-0.6,0.9-1.3,1.6-1.9,2.1c-0.7,0.5-1.1,0.5-1.4,0.1c-0.4-0.7-1.2-2.8-2.5-6.4c-1.3-3.5-2.7-8.4-4.3-14.5
		c-1.6-0.2-3.2-0.3-4.9-0.5c-1.7-0.2-3.4-0.3-5.1-0.5c-1.7-0.2-3.4-0.4-5.1-0.6c-1.7-0.3-3.3-0.5-4.9-0.8c-0.8,3.5-1.6,6.7-2.3,9.8
		c-0.8,3.1-1.5,5.8-2.1,8c-0.7,2.3-1.2,4.1-1.7,5.4c-0.5,1.3-0.8,2-1.1,2c-0.6,0-1.3-0.4-1.9-1.2c-0.6-0.8-1.2-1.7-1.7-2.8
		c-0.5-1.1-0.9-2.2-1.2-3.4c-0.3-1.2-0.5-2.2-0.5-3c0.2-1.8,0.4-3.7,0.6-5.7c0.3-2,0.5-3.8,0.7-5.4c0.2-2,0.5-3.9,0.7-5.8h-0.5
		c-0.3-0.2-0.8-0.5-1.3-1.1c-0.6-0.6-1.1-1.1-1.7-1.7c-0.6-0.6-1-1.2-1.4-1.8c-0.4-0.6-0.6-1-0.6-1.4c0-0.2,0.6-0.3,1.7-0.5
		c1.1-0.2,2.7-0.3,4.5-0.5c0.6-4.7,1.3-9.6,2-14.8c0.7-5.1,1.4-9.9,2.1-14.4s1.4-8.4,2.1-11.8c0.7-3.3,1.2-5.7,1.7-6.9
		c0.8-2.1,2.2-4,4.1-5.7c2-1.7,4-3.1,6.2-4.3c2.2-1.1,4.2-2,6.2-2.7c2-0.6,3.4-0.9,4.4-0.9c0.4,0,0.8,0.9,1.4,2.7
		c0.5,1.8,1.1,4.2,1.7,7.1c0.6,3,1.2,6.5,1.9,10.5c0.7,4,1.3,8.2,2,12.6c0.6,4.4,1.2,8.9,1.8,13.5c0.6,4.6,1.2,9,1.7,13.2
		C424.1,254.9,426.3,255,426.6,255.2z M392.9,255.9c2.5-0.2,5-0.3,7.6-0.4c2.5-0.1,5-0.2,7.4-0.4c-0.6-3.1-1.3-6.5-2.1-10.3
		c-0.6-3.2-1.4-7-2.2-11.3c-0.9-4.3-1.7-9.1-2.6-14.3c-0.9,4.6-1.9,9.2-2.8,13.5s-1.8,8.3-2.6,11.8
		C394.6,248.6,393.7,252.4,392.9,255.9z"/>
</g>
<g class="st3">
	<path class="st5" d="M471.4,211.7c0.4,0.5,0.8,1.8,1.2,4c0.4,2.2,0.7,4.6,0.9,7.2c0.2,2.6,0.3,5,0.2,7.3c0,2.3-0.3,3.8-0.6,4.5
		c-0.3,0.5-1.1,1.3-2.4,2.5c-1.3,1.2-2.7,2.6-4.4,4.1c-1.7,1.5-3.4,3-5.1,4.4c-1.8,1.5-3.3,2.7-4.7,3.7c0.6,1.3,1.4,2.9,2.4,4.9
		s2,4.1,3.1,6.4s2.2,4.5,3.2,6.9c1.1,2.4,2,4.5,2.9,6.4c0.9,1.9,1.6,3.5,2.1,4.8c0.5,1.3,0.8,2.1,0.8,2.3c0,0.4-0.2,0.9-0.5,1.7
		s-0.8,1.4-1.4,1.9c-0.6,0.6-1.1,1.1-1.8,1.5c-0.6,0.4-1.2,0.5-1.8,0.2c-0.3-0.1-0.9-0.7-1.8-2c-0.9-1.2-1.9-2.8-3.1-4.6
		c-1.2-1.9-2.6-4-4-6.3c-1.5-2.4-2.9-4.7-4.4-7.1c-1.5-2.4-2.9-4.7-4.3-7c-1.3-2.2-2.5-4.2-3.5-6c-0.2,8.2-0.3,14.5-0.5,18.9
		c-0.2,4.4-0.3,7.6-0.4,9.7c-0.2,2.4-0.3,3.8-0.5,4.1c-0.2,0-0.7-0.3-1.5-1c-0.8-0.7-1.6-1.5-2.5-2.4s-1.7-1.9-2.4-2.8
		c-0.8-0.9-1.2-1.7-1.4-2.1c-0.2-1-0.4-4-0.7-8.9c-0.2-2.1-0.3-4.8-0.5-7.9c-0.2-3.2-0.3-7-0.5-11.5c-0.2-4.5-0.5-9.8-0.8-15.8
		c-0.3-6.1-0.6-13-0.9-20.9c-1.4-0.1-2.6-0.1-3.4-0.1c-0.9,0-1.5,0.1-2,0.2c-0.5,0.1-0.8,0.1-1.1,0.1c-0.2,0-0.4-0.2-0.6-0.5
		c-0.3-0.6-0.5-1.7-0.7-3.2c-0.2-1.5-0.2-3-0.2-4.4c0-1.6,0.2-3.2,0.7-4.7c0.4-1.6,1-2.6,1.6-3c0.3-0.2,1.4-0.2,3.3,0.1
		c1.9,0.3,4,0.6,6.3,1c2.3,0.4,4.5,0.8,6.6,1.3c2.1,0.5,3.4,0.8,4.1,0.9c0.6,0.2,1.5,0.4,2.7,0.8c1.3,0.4,2.7,0.8,4.4,1.4
		s3.4,1.2,5.3,2c1.8,0.7,3.6,1.5,5.3,2.2c1.7,0.8,3.1,1.6,4.5,2.4C469.6,210.2,470.7,211,471.4,211.7z M444.8,245.1
		c0.7-0.4,1.7-1.2,2.8-2.3c1.2-1.1,2.5-2.4,3.8-3.9c1.4-1.5,2.8-3,4.2-4.6c1.4-1.6,2.7-3.1,3.8-4.5c1.1-1.4,2.1-2.6,2.8-3.7
		c0.7-1,1.1-1.7,1.1-2c0-0.6-0.5-1.2-1.5-2c-1-0.7-2.3-1.5-3.8-2.3c-1.6-0.8-3.4-1.6-5.6-2.3c-2.1-0.7-4.3-1.4-6.5-2L444.8,245.1z"
		/>
</g>
<g class="st3">
	<path class="st5" d="M495.4,209.7c1.6,0.3,3.7,1.2,6.5,2.8c2.8,1.5,5.5,3.3,8.3,5.2c2.8,1.9,5.3,3.8,7.4,5.7c2.1,1.9,3.4,3.2,3.8,4
		c0.3,0.8,0.4,2.2,0.4,4.4c-0.1,2.1-0.3,4.7-0.7,7.7c-0.4,3-0.9,6.4-1.5,10c-0.6,3.6-1.3,7.3-2.1,10.9c-0.8,3.7-1.6,7.2-2.5,10.6
		c-0.9,3.4-1.8,6.4-2.8,9c-0.4,1.3-1.3,2.6-2.6,4.1c-1.3,1.5-2.9,3-4.7,4.4c-1.8,1.5-3.7,2.8-5.7,4.1c-2,1.3-3.9,2.3-5.7,3.2
		c-1.8,0.9-3.3,1.5-4.7,1.8c-1.4,0.3-2.3,0.2-2.8-0.2s-1-2-1.5-4.5c-0.5-2.6-1-5.8-1.5-9.7c-0.5-3.9-0.9-8.3-1.3-13.1
		c-0.4-4.8-0.8-9.8-1.1-14.8c-0.3-5-0.6-10-0.8-14.8c-0.2-4.8-0.3-9.2-0.4-13.1c0-3.9,0-7.2,0.2-9.8c0.2-2.6,0.4-4.2,0.8-4.8
		c0.3-0.4,1.1-0.8,2.4-1.2c1.3-0.4,2.8-0.7,4.4-1.1c1.6-0.3,3.2-0.6,4.8-0.7C493.6,209.5,494.7,209.5,495.4,209.7z M494.7,224.7
		c-0.6,0.4-0.9,1.6-1.2,3.6c-0.2,2-0.4,4.4-0.5,7.2c-0.1,2.8-0.2,5.8-0.2,8.9c0,3.2,0,6-0.1,8.6c-0.2,6.8-0.2,12.1-0.2,16
		c0,3.9,0.1,6.8,0.2,8.7c0.1,1.9,0.3,3.2,0.5,3.7c0.2,0.5,0.5,0.8,0.9,0.8c0.3,0,0.8-0.2,1.6-0.7c0.7-0.5,1.6-1.1,2.4-1.8
		c0.9-0.7,1.7-1.5,2.5-2.3c0.8-0.8,1.3-1.6,1.7-2.2c0.3-0.6,0.7-1.9,1.2-3.7c0.5-1.8,0.9-4,1.4-6.5s0.9-5.1,1.4-7.9
		c0.5-2.8,0.9-5.5,1.2-8c0.4-2.6,0.6-4.8,0.8-6.9c0.2-2,0.3-3.4,0.3-4.3c-0.1-1.7-0.8-3.3-2-5.1c-1.3-1.7-2.7-3.3-4.3-4.6
		c-1.6-1.3-3.2-2.4-4.7-3.1C496.2,224.4,495.2,224.3,494.7,224.7z"/>
</g>
<g class="st3">
	<path class="st5" d="M565.5,215.3c0.1,1.2-0.1,3-0.4,5.3c-0.4,2.4-0.9,4.7-1.7,7.1c-0.8,2.4-1.8,4.4-3,6.2
		c-1.2,1.8-2.6,2.7-4.2,2.7c-0.8,0-1.5-0.5-2-1.4c-0.6-0.9-1-2.2-1.4-3.7c-0.4-1.5-0.7-3.2-0.9-5c-0.2-1.8-0.5-3.6-0.7-5.4
		c-0.2-1.7-0.4-3.3-0.5-4.8c-0.1-1.5-0.2-2.5-0.3-3.2c-0.3-0.5-0.9-1-1.7-1.5c-0.8-0.5-1.6-0.8-2.2-0.8c-0.7,0-1.6,0.7-2.5,2
		c-1,1.3-1.9,2.9-2.8,4.7c-0.9,1.8-1.6,3.6-2.1,5.4c-0.6,1.8-0.8,3.1-0.7,4.1c0,0.6,0.6,1.7,1.8,3.3c1.2,1.6,2.7,3.4,4.6,5.6
		c1.8,2.1,3.8,4.4,5.9,6.9s4.1,4.9,5.9,7.4c1.8,2.4,3.3,4.8,4.6,7c1.3,2.2,1.9,4.1,2,5.7c0.2,1.9-0.3,4.3-1.2,7.3
		c-1,3-2.2,5.8-3.7,8.6c-1.5,2.8-3.1,5.1-4.8,7.1c-1.7,2-3.2,3.1-4.5,3.1c-0.9,0.1-2-0.3-3.4-1.1s-3-1.9-4.6-3.2
		c-1.7-1.3-3.3-2.8-5-4.4c-1.7-1.6-3.3-3.2-4.7-4.8c-1.5-1.6-2.7-3-3.7-4.3c-1-1.3-1.6-2.3-1.7-2.9c-0.3-0.9-0.5-2.2-0.5-3.8
		c0-1.6,0-3.2,0.2-4.7c0.2-1.5,0.5-2.9,0.8-4c0.4-1.1,0.8-1.7,1.4-1.7c0.4,0,1,0.5,2,1.5c0.9,1,1.9,2.3,3.1,3.9
		c1.2,1.6,2.5,3.3,3.8,5.1c1.4,1.9,2.7,3.6,4,5.1c1.3,1.6,2.4,2.9,3.4,4c1,1.1,1.9,1.6,2.5,1.5c0.5,0,1-0.4,1.5-1.1
		c0.5-0.7,1.1-1.7,1.5-2.7s0.9-2.1,1.2-3.2c0.3-1.1,0.5-2,0.5-2.6c-0.1-0.9-0.8-2.3-2.3-4.1c-1.5-1.8-3.3-3.8-5.4-6
		c-2.2-2.2-4.5-4.6-7-7c-2.5-2.4-4.8-4.8-7-7c-2.2-2.2-4-4.3-5.4-6.1c-1.5-1.8-2.2-3.2-2.3-4.1s0.2-2.4,0.8-4.4
		c0.6-2,1.5-4.3,2.5-6.8c1.1-2.5,2.3-5.1,3.6-7.7c1.3-2.6,2.7-5,4.1-7.2c1.4-2.2,2.8-4,4.1-5.4c1.3-1.4,2.5-2.1,3.5-2.1
		c1.3,0,2.9,0.3,4.6,0.9c1.7,0.6,3.5,1.4,5.4,2.4c1.9,1,3.7,2.1,5.4,3.4c1.8,1.3,3.4,2.5,4.8,3.8s2.6,2.6,3.4,3.9
		C565,213,565.5,214.2,565.5,215.3z"/>
</g>
<path class="st4" d="M177.7,63h3.4c0,0,0.6-16.2,18.9-20.7h2v-3.1c0,0-15.8-1.1-20.6-18.2l-0.3-3h-2.7c0,0,2.8,12.8-17.3,20.7h-2.3
	v3.3h2.5c0,0,14.7,3,16.8,18.8l0.1,2.3"/>
<path class="st4" d="M11.2,122.4h2c0,0,0.4-9.6,11.2-12.3h1.2v-1.9c-5.9-0.8-10.8-5.1-12.2-10.9l-0.2-1.8h-1.6
	c0,0,1.7,7.6-10.3,12.3H0v2h1.5c5.3,1.3,9.3,5.7,10,11.1l0.1,1.4"/>
</svg>
