<svg id="Layer_3" data-name="Layer 3" xmlns="http://www.w3.org/2000/svg" viewBox="0 0 185.49 169.86"><defs><style>.cls-1{fill:#23221f;}.cls-2{fill:#191816;}.cls-3{fill:#939393;}</style></defs><path class="cls-1" d="M481.32-1402.23l-43.08,40.3V-1336l56.62-53.48Zm-43.08-102.35v27.68l43.82,41.14,14.53-13.72Z" transform="translate(-367.8 1504.58)"/><path class="cls-2" d="M510-1436.8l-13.43-12.68-14.53,13.72-18.18,17.17,17.44,16.36,13.54,12.7,14.53-13.72,18.08-17.07Zm-18.24,17,3.66-3.42,4.14,3.89-3.66,3.42Z" transform="translate(-367.8 1504.58)"/><path class="cls-1" d="M494.86-1389.53l58.43,54.81V-1362l-43.9-41.24Zm1.73-60L510-1436.8l43.27-40.37V-1503Z" transform="translate(-367.8 1504.58)"/><path class="cls-3" d="M370.92-1430.21v-69.21h3.91v69.21Zm30.8,0-26.54-64.92h-2.39v-4.29h4.56l26.55,64.92h1.82v4.29Zm2.48,0v-69.21h3.91v69.21Z" transform="translate(-367.8 1504.58)"/><path class="cls-3" d="M389.52-1336.81q-21.72,0-21.72-35.09,0-36.07,21.72-36.07t21.72,36.07Q411.24-1336.81,389.52-1336.81Zm0-3.9q17.72,0,17.72-31.19,0-31.68-17.72-31.68t-17.73,31.68Q371.79-1340.71,389.52-1340.71Z" transform="translate(-367.8 1504.58)"/></svg>