<svg id="Nox_light" data-name="Nox light" xmlns="http://www.w3.org/2000/svg" viewBox="0 0 185.49 169.86"><defs><style>.cls-1{fill:#f9f9f9;}.cls-2{fill:#d8d5d4;}.cls-3{fill:#939393;}</style></defs><path class="cls-1" d="M374.32-2195.23l-43.08,40.3V-2129l56.62-53.48Zm-43.08-102.35v27.68l43.82,41.14,14.53-13.72Z" transform="translate(-260.8 2297.58)"/><path class="cls-2" d="M403-2229.8l-13.43-12.68-14.53,13.72-18.18,17.17,17.44,16.36,13.54,12.7,14.53-13.72,18.08-17.07Zm-18.24,17,3.66-3.42,4.14,3.89-3.66,3.42Z" transform="translate(-260.8 2297.58)"/><path class="cls-1" d="M387.86-2182.53l58.43,54.81V-2155l-43.9-41.24Zm1.73-59.95L403-2229.8l43.27-40.37V-2296Z" transform="translate(-260.8 2297.58)"/><path class="cls-3" d="M263.92-2223.21v-69.21h3.91v69.21Zm30.8,0-26.54-64.92h-2.39v-4.29h4.56l26.55,64.92h1.82v4.29Zm2.48,0v-69.21h3.91v69.21Z" transform="translate(-260.8 2297.58)"/><path class="cls-3" d="M282.52-2129.81q-21.72,0-21.72-35.09,0-36.07,21.72-36.07t21.72,36.07Q304.24-2129.82,282.52-2129.81Zm0-3.9q17.72,0,17.72-31.19,0-31.68-17.72-31.68t-17.73,31.68Q264.79-2133.71,282.52-2133.71Z" transform="translate(-260.8 2297.58)"/></svg>