<svg id="Layer_1" data-name="Layer 1" xmlns="http://www.w3.org/2000/svg" viewBox="0 0 236.14 345.25"><defs><style>.cls-1{fill:#f9f9f9;}.cls-2{fill:#939393;}.cls-3{fill:#606060;isolation:isolate;opacity:0.38;}</style></defs><path class="cls-1" d="M-1306.77,1054.64c-4.1-4.7-8.3-9.8-9.7-16.4h0l-17.6-85.8c2.4-7,5-12.1,2-21.9-2-6.6-7.3-10-14.8-11.5h0c-20.1-3.9-41.6-6.1-62.8-16.9-4.9-8-9.2-16.4-11.9-25.9a7,7,0,0,0,3.2-1.9,6.17,6.17,0,0,0,.8-4.4,5.67,5.67,0,0,0-2.5-3.7,6.76,6.76,0,0,0-3.7-.4l-11.7-48.7,2.5-.5a6.62,6.62,0,0,0,4.2-2.7,6.16,6.16,0,0,0,1-4.2,5.68,5.68,0,0,0-1.6-3.7c-.4-.5-1.2-.4-1.9-.6a52.1,52.1,0,0,1,8.9-11.5,1.13,1.13,0,0,0,.3-1.1l-4.2-19.1a1.2,1.2,0,0,0-1.2-.9h0c-11.4.4-21.1-1.3-31.1-2.8h-.4l-28.3,5.9c-.2.1-.3.1-.4.2-8.6,5.3-16.8,10.8-27.5,14.9a1.29,1.29,0,0,0-.8,1.3l3.8,19.2a1.6,1.6,0,0,0,.7.9,48.33,48.33,0,0,1,12.8,7c-.5.5-1.2.7-1.5,1.3a6.1,6.1,0,0,0,.1,4,7.53,7.53,0,0,0,2.6,3.5,6.74,6.74,0,0,0,5,.8l2.5-.5,8.8,49.4a6.25,6.25,0,0,0-3.2,1.9,5.76,5.76,0,0,0-.9,4.4,5.92,5.92,0,0,0,2.4,3.7,6.36,6.36,0,0,0,3.7.4,100.77,100.77,0,0,1-.5,28.5c-15.1,18.3-33.9,29-50.8,40.5h0c-6.2,4.5-9.7,9.6-9,16.5,1.1,10.1,5.5,13.9,10.5,19.2l18.2,85.6c1.4,6.7-.4,13-2.3,18.9a14.62,14.62,0,0,0,2.2,12.5,11.92,11.92,0,0,0,12.3,5l31.6-6.6,2-8.7,13-57.2,2-8.9-25.8-71.9,74.3-36.6,38.6,70-60.4,35.4-22.6-53.2,38-18.5,14.7,27.5-16,9.9-3.7-7.4c13.5-3.1,6.3-22.2-5.2-17l-12.8,6.5s-6,2.1-3,9,12.1,27,12.1,27,3.6,5.7,10.8,1.1,33.9-19.6,33.9-19.6,4.8-3.9.7-10-25.1-44.8-25.1-44.8a7,7,0,0,0-9.3-2.4l-49.1,23.3s-7.2,3.3-2.8,14.4c7.5,19.3,17.1,47.3,20.2,56.7l-.8,7.9-5.9,55.9-.9,8.5,137-28.6a12,12,0,0,0,9.3-9.5A15.05,15.05,0,0,0-1306.77,1054.64Zm-169.4-32.3a4.81,4.81,0,0,1,5.7,3.7h0a4.81,4.81,0,0,1-3.7,5.7h0a4.81,4.81,0,0,1-5.7-3.7h0a4.67,4.67,0,0,1,3.7-5.7Zm55.6,30,1.2-.3.4,1.3a11.5,11.5,0,0,0,11.1,6.4l.3,1.4-.9.2c-7.9,3.8-6.6,11.3-6.6,11.3l-1.3.3-.2-1a10.46,10.46,0,0,0-9.5-7l-1.2.2-.3-1.5,1-.2c8.5-5.5,6-11.1,6-11.1Z" transform="translate(1539.56 -770.04)"/><path class="cls-2" d="M-1451.77,1042.74l-13,57.2-35.7,7.4a2.63,2.63,0,0,1-3-1.3,5.56,5.56,0,0,1-1-4.5c2.3-7.2,4.4-15,2.5-23.7l-6.4-25.6C-1494.27,1048.54-1473.47,1047.84-1451.77,1042.74Z" transform="translate(1539.56 -770.04)"/><path class="cls-2" d="M-1313.07,1061.54c-5-5.7-10-12-11.8-20.7l-.7-2.5c-37.9,5.5-82.8-5.7-117.8,2.4l-5.9,55.9,134.9-28.1a2.66,2.66,0,0,0,2.2-2.4A5.74,5.74,0,0,0-1313.07,1061.54Zm-94.4-.3-.9.2c-7.9,3.8-6.6,11.3-6.6,11.3l-1.3.3-.2-1a10.46,10.46,0,0,0-9.5-7l-1.2.2-.3-1.5,1-.2c8.4-5.5,5.9-11.1,5.9-11.1l1.2-.3.4,1.3a11.5,11.5,0,0,0,11.1,6.4Z" transform="translate(1539.56 -770.04)"/><path id="path14268" class="cls-3" d="M-1484.57,804.44a33.29,33.29,0,0,0-6.3,2.1c1.2,0,2.3-.1,3.4-.2-1.1.4-2.1.8-3.2,1.2,1.2,0,2.3-.1,3.4-.2-1.1.4-2.1.8-3.2,1.2a26.93,26.93,0,0,0,4-.3c-1.3.4-2.5.9-3.8,1.4,1.1,0,2.3-.1,3.4-.2-1.1.4-2.1.8-3.2,1.2,1.2,0,2.3-.1,3.4-.2-1.1.4-2.1.8-3.2,1.2h.7c-.1.4-.3.4-.5.5,1.1,0,2.3-.1,3.4-.2-1.1.4-2.1.8-3.2,1.2,1.1,0,2.3-.1,3.4-.2-1.1.4-2.1.8-3.2,1.2a26.93,26.93,0,0,0,4-.3c-1.3.4-2.5.9-3.8,1.4,1.2,0,2.3-.1,3.4-.2-1.1.4-2.1.8-3.2,1.2,1.2,0,2.3-.1,3.4-.2-1.1.4-2.1.8-3.2,1.2a30,30,0,0,0,12.9-2.9c-1.1,0-2.3.1-3.4.2a28.8,28.8,0,0,0,3.1-1.3c-1.1,0-2.3.1-3.4.2a28.8,28.8,0,0,0,3.1-1.3,25.61,25.61,0,0,0-3.9.3,23.88,23.88,0,0,0,3.7-1.5c-1.1,0-2.3.1-3.4.2,1-.4,2.1-.8,3.1-1.3-1.2,0-2.3.1-3.4.2a28.8,28.8,0,0,0,3.1-1.3h-.7l.7-.3c-1.1,0-2.3.1-3.4.2a28.8,28.8,0,0,0,3.1-1.3c-1.1,0-2.3.1-3.4.2,1-.4,2.1-.8,3.1-1.3a25.61,25.61,0,0,0-3.9.3,23.88,23.88,0,0,0,3.7-1.5c-1.1,0-2.3.1-3.4.2,1-.4,2.1-.8,3.1-1.3-1.1,0-2.3.1-3.4.2a28.8,28.8,0,0,0,3.1-1.3c-1.7.9-3.9,1.1-6,1.6Zm3,15.6a14,14,0,0,0-4,1.6,10.44,10.44,0,0,0,2.5,0,12.44,12.44,0,0,0-2,1,10.44,10.44,0,0,0,2.5,0,12.44,12.44,0,0,0-2,1,13.1,13.1,0,0,0,2.8,0,16.27,16.27,0,0,0-2.3,1.1,10.44,10.44,0,0,0,2.5,0,12.44,12.44,0,0,0-2,1,10.44,10.44,0,0,0,2.5,0,12.44,12.44,0,0,0-2,1,13.06,13.06,0,0,0,8.6-1.9,9.64,9.64,0,0,0-2.4,0,11.4,11.4,0,0,0,1.9-1,9.64,9.64,0,0,0-2.4,0,11.4,11.4,0,0,0,1.9-1,13.36,13.36,0,0,0-2.8.1,15.05,15.05,0,0,0,2.2-1.1,9.64,9.64,0,0,0-2.4,0,11.4,11.4,0,0,0,1.9-1,9.64,9.64,0,0,0-2.4,0,11.4,11.4,0,0,0,1.9-1,13.39,13.39,0,0,0-4.5.2Zm3.8,8.1a9,9,0,0,0-2.8,1.3,8.81,8.81,0,0,0,1.7.2,4.19,4.19,0,0,0-1.4.9,8.81,8.81,0,0,0,1.7.2,4.19,4.19,0,0,0-1.4.9,12.25,12.25,0,0,0,1.9.2c-.6.3-1.2.6-1.7.9a8.81,8.81,0,0,0,1.7.2,6.38,6.38,0,0,0-1.4.8,8.81,8.81,0,0,0,1.7.2,4.19,4.19,0,0,0-1.4.9,6.48,6.48,0,0,0,6-1.3,8.75,8.75,0,0,0-1.6-.2c.5-.3.9-.6,1.4-.9a8.75,8.75,0,0,0-1.6-.2,5.51,5.51,0,0,0,1.4-.9,5.92,5.92,0,0,0-1.9-.1,8.64,8.64,0,0,0,1.6-1,8.75,8.75,0,0,0-1.6-.2,5.51,5.51,0,0,0,1.4-.9,8.75,8.75,0,0,0-1.6-.2c.5-.3.9-.6,1.4-.9a13.41,13.41,0,0,0-3.5.1Zm13,51.1a6.78,6.78,0,0,0-2.7,1.3,8.75,8.75,0,0,0,1.6.2,10,10,0,0,0-1.4.8,8.75,8.75,0,0,0,1.6.2,10,10,0,0,0-1.4.8,11.08,11.08,0,0,0,1.9.2,5.07,5.07,0,0,0-1.6.9,8.75,8.75,0,0,0,1.6.2,10,10,0,0,0-1.4.8,8.75,8.75,0,0,0,1.6.2,10,10,0,0,0-1.4.8,5.91,5.91,0,0,0,5.7-1.3,7.77,7.77,0,0,0-1.6-.2,3.81,3.81,0,0,0,1.3-.9,7.77,7.77,0,0,0-1.6-.2,3.81,3.81,0,0,0,1.3-.9,5.46,5.46,0,0,0-1.8-.1,5.6,5.6,0,0,0,1.5-1,7.77,7.77,0,0,0-1.6-.2,3.81,3.81,0,0,0,1.3-.9,7.77,7.77,0,0,0-1.6-.2,3.81,3.81,0,0,0,1.3-.9c-.5.2-1.6.2-2.6.4Z" transform="translate(1539.56 -770.04)"/><path class="cls-1" d="M-1361.77,833h3.4s.6-16.2,18.9-20.7h2v-3.1a24.27,24.27,0,0,1-20.6-18.2l-.3-3h-2.7s2.8,12.8-17.3,20.7h-2.3V812h2.5s14.7,3,16.8,18.8l.1,2.3" transform="translate(1539.56 -770.04)"/><path class="cls-1" d="M-1528.27,892.44h2s.4-9.6,11.2-12.3h1.2v-1.9a14.52,14.52,0,0,1-12.2-10.9l-.2-1.8h-1.6s1.7,7.6-10.3,12.3h-1.3v2h1.5a13.23,13.23,0,0,1,10,11.1l.1,1.4" transform="translate(1539.56 -770.04)"/></svg>