<svg id="Layer_1" data-name="Layer 1" xmlns="http://www.w3.org/2000/svg" viewBox="0 0 274.05 219.66"><defs><style>.cls-1{fill:#d9d9d8;}</style></defs><path class="cls-1" d="M882.38,407.87a2.62,2.62,0,0,0,0-.28c0-.11,0-.23,0-.35l0-.2c0-.11,0-.22-.09-.33a.83.83,0,0,0,0-.15c0-.13-.08-.25-.13-.38v0a36.13,36.13,0,0,0-3.71-6.19,5.1,5.1,0,0,1-.28-.43c-3.21-5.29-5.72-10.06-10.15-14.48-5.1-5.09-8.12-10-15.87-7.29-4.89,1.68-9.79,5.73-15.23,5.31l-1.13-.11-.49-.06-.73-.1-.6-.08-.73-.11-.58-.09-1-.16-.26,0c-1.93-.32-4-.67-6-.93h0a28,28,0,0,0-8.47-.15c-5.85,1.18-7.73,5.72-11.81,9.39-2.1,1.87-3.74,1.41-5.63,3.46a31.59,31.59,0,0,0-2.26,2.54c-.26.35-.59.45-.88,1s-.3,1.16-.62,1.58c-1,1.37-4,1.88-5.52,2.65-6,3-7.69,7.15-14.3,7.8-5.34.5-11.33-.18-15.13,4.32-4.45,5.3-3.93,13.16-6.92,19-.09.17-.18.35-.28.52s-.32.55-.5.82-.18.28-.28.42c-.22.32-.47.62-.72.92-.08.08-.14.17-.21.25a11.68,11.68,0,0,1-1.13,1.09c-.34.29-.69.56-1,.82l-.27.2c-.3.21-.59.41-.89.6l-.21.13c-.36.23-.73.45-1.11.65l-.19.1c-.31.17-.63.33-1,.48l-.32.15q-.46.22-1,.42l-.21.09-1.06.41-.58.2-.5.16c-2.15.7-4.36,1.21-6.6,1.71h0c-2.09.47-4.19.93-6.26,1.52-8.55,2.43-16.68,5.06-23.76,10.63l-28.47,35c-7.48-2.61-14.69-5-21.42-7.17h0c-8.68-2.76-16.54-5.07-23.12-6.75l-.15,0-1.76-.44-.31-.08c-1.24-.3-2.42-.58-3.55-.83l-.46-.1-1.16-.25-.52-.11-1.15-.23-.36-.07-1.36-.24-.44-.08-.89-.14-.47-.07-.85-.11-.35,0-1.08-.11-.27,0-.74,0-.32,0h-.89c-.27,0-.53,0-.77,0h-.1l-.56.08-.19,0-.39.1-.15.05a3.14,3.14,0,0,0-.41.19,6.65,6.65,0,0,0-3.53,4.76c-1.76,2.7-2.74,8.28,4.15,19.08,27.93,40.16,95.86,77.67,158.27,91.24,20.34,4.42,45.27,9.65,66.13,7.17,9.35-1.09,15.47-2.7,15.83-7.07,1.18-1.39,1.43-3.17.53-5.55-.09-.18-.21-.38-.33-.58l-.13-.19-.31-.45-.18-.24-.36-.46-.21-.25-.46-.52-.2-.23-.74-.78-.13-.13-.68-.68-.37-.35-.52-.5-.45-.41-.49-.45-.53-.47-.44-.39-.63-.55,0,0c-.94-.81-1.94-1.64-3-2.49l-.14-.11-1-.84-.06,0c-4.09-3.26-8.76-6.67-13.18-9.74l-.26-.18-.89-.62-.6-.4-.61-.42c-1.65-1.13-3.24-2.18-4.73-3.15l0,0c-2.34-1.52-4.43-2.81-6.06-3.74-6.82-3.91-13.57-7.93-20.36-11.88l-1-5.65,3.49-7.57h0l2.35-5.08h0l.45-1-5.47-30.5a64.2,64.2,0,0,1-.28-8.21c.29-8,2.47-13.71,6.32-22.94a21.9,21.9,0,0,1,2.54-5c2.84-3.72-1.77-9.45,2.22-12.35,2.72-2,5.72-3.81,7.92-6.32v0l.27-.33.25-.31a13,13,0,0,0,.79-1.11c.3-.47.69,0,.74-.89,0-.23-.4-.82-.49-1.07-.4-1.07-1-2.5-1.61-4.1l0-.07c-.11-.29-.21-.58-.31-.88l-.06-.17c-.09-.28-.19-.56-.27-.84,0-.08,0-.16-.07-.23-.08-.28-.16-.55-.23-.83l-.06-.25c-.07-.27-.14-.55-.2-.83l0-.15a14.47,14.47,0,0,1-.29-2.59c0-.13,0-.26,0-.39s0-.4,0-.6,0-.28,0-.42a5.67,5.67,0,0,1,.1-.57c0-.13.06-.27.1-.4a5.05,5.05,0,0,1,.18-.55l.15-.35a4.58,4.58,0,0,1,.28-.54,5.88,5.88,0,0,1,1.16-1.4c2.46-2.06,6.9-2.39,10-2.48,1.82-.06,4.48.59,6.05-.53,2.2-1.57,2.14-5.08,1.88-8.77h0v-.13c0-.14,0-.29,0-.44l-.12-1.7c0-.21,0-.41,0-.61l0-.75c0-.21,0-.44,0-.65s0-.42,0-.63,0-.49,0-.72l0-.47c0-.27,0-.55.06-.8,0-.1,0-.19,0-.28a6.64,6.64,0,0,1,1-2.89,3.07,3.07,0,0,1,.2-.27l.08-.09a1.83,1.83,0,0,1,.13-.16,3.85,3.85,0,0,1,1.47-1.1,4.07,4.07,0,0,1,2.71.39,11.57,11.57,0,0,0,1.55.65,7.72,7.72,0,0,0,1.3.07c1.07.2,5,4.34,6.06,4.26,4.41-.37,3.12-8.69,8.54-6.38a3.05,3.05,0,0,0,1.47.23l.38-.07.14,0,.25-.08.15,0,.23-.09.14-.06.19-.08a11.44,11.44,0,0,1,1.22-.54h0a2,2,0,0,1,1-.1h.06l.27.09.1.05a1.22,1.22,0,0,1,.26.16l.1.06a3.29,3.29,0,0,1,.35.32l.43.43h0c1.59,1.51,3.18,2.25,4.26,4.31.71,1.35,1.27,2.84,1.92,4.23,1.12,2.35,3.68,5.85,3.77,8.52.1,3,1.38,5.49.84,9.68-.12,1-7.84,6.77-5,6.15,1.63-.34,6.13-.22,7-1.08s2.57-5.66,2.75-6.95a13.44,13.44,0,0,1,1.1-3.76c.85-2.05,1.7-4.09,2.57-6.16a1.57,1.57,0,0,0,.11-.54Z" transform="translate(-608.34 -376.98)"/></svg>